<svg width="95" height="52" viewBox="0 0 95 52" fill="none" xmlns="http://www.w3.org/2000/svg">
<g clip-path="url(#clip0_446_243)">
<path d="M31.4952 0.902875C27.9654 1.02478 24.4901 1.5124 21.2465 2.58244C18.003 3.63895 14.9911 5.23725 12.388 7.30962C11.107 8.35258 9.90765 9.5039 8.84463 10.7771C7.76798 12.0368 6.84124 13.4048 6.03716 14.8271C5.64194 15.5449 5.27397 16.2899 4.94688 17.0349C4.6198 17.7934 4.31997 18.5519 4.07466 19.3375C3.82935 20.1231 3.61129 20.9087 3.43412 21.7214C3.25695 22.5206 3.1343 23.3333 3.0389 24.1595C2.9435 24.9722 2.88898 25.7984 2.87536 26.6247C2.87536 27.4509 2.90261 28.2636 2.99801 29.0899C3.07978 29.9161 3.20244 30.7288 3.37961 31.5415C3.55678 32.3542 3.76121 33.1533 4.00652 33.9525C5.0014 37.122 6.66407 40.1019 8.85826 42.6619C11.0524 45.2218 13.7918 47.3349 16.8718 48.8654C18.4118 49.6375 20.0336 50.2606 21.6963 50.7482C22.5276 50.992 23.3862 51.1952 24.2312 51.3848C25.0898 51.5609 25.962 51.7099 26.8342 51.8318C25.9484 51.8318 25.0761 51.7911 24.1903 51.7234C23.3044 51.6557 22.4322 51.5338 21.5464 51.3848C19.7883 51.0733 18.0575 50.5992 16.3812 49.949C13.0286 48.6487 9.90765 46.6305 7.37275 44.0163C4.8106 41.4157 2.83447 38.2327 1.56702 34.7923C0.926483 33.0721 0.490371 31.2706 0.23143 29.442C0.108774 28.521 0.0270031 27.5999 0.0133746 26.6789C-0.0138823 25.7578 0.0133747 24.8367 0.081517 23.9021C0.381344 20.2179 1.48525 16.5743 3.33872 13.3507C4.25183 11.7388 5.35574 10.2353 6.59593 8.85374C7.84975 7.48571 9.23985 6.23957 10.7526 5.18307C13.7645 3.00234 17.2261 1.55303 20.7968 0.86224C22.5821 0.523617 24.3811 0.347534 26.1801 0.361078C27.0795 0.374623 27.9654 0.415258 28.8512 0.510073C29.0693 0.523617 29.2873 0.564252 29.519 0.591342C29.7371 0.618432 29.9551 0.645522 30.1732 0.686156C30.6229 0.740336 31.059 0.821606 31.4952 0.902875Z" fill="#803F59"/>
<path d="M16.0952 45.2354C16.7494 46.17 17.4717 47.0368 18.3303 47.7818C19.1616 48.5268 20.102 49.1363 21.1105 49.6104C23.1275 50.545 25.349 50.9107 27.584 50.9107C29.8191 50.9242 32.0542 50.5991 34.262 50.1251C34.8207 50.0032 35.3659 49.8677 35.911 49.7187C36.4562 49.5833 37.0013 49.4207 37.5464 49.2582C38.6367 48.9331 39.7134 48.581 40.79 48.1746C39.8088 48.757 38.7594 49.2311 37.6964 49.6781C36.6333 50.1115 35.5431 50.4908 34.4391 50.8159C32.2177 51.4525 29.9145 51.8453 27.5704 51.8317C26.9844 51.8317 26.3983 51.8046 25.8123 51.7369C25.2263 51.6692 24.6539 51.5879 24.0679 51.4525C23.4955 51.3306 22.9231 51.168 22.3779 50.9649C21.8192 50.7617 21.2877 50.5179 20.7698 50.2334C20.2519 49.949 19.7613 49.6375 19.2979 49.2717C18.8345 48.906 18.4121 48.5132 18.0032 48.0933C17.2128 47.24 16.5722 46.2648 16.0952 45.2354Z" fill="#803F59"/>
<path d="M43.9861 34.4891C41.9996 36.8787 37.9429 39.484 35.2886 41.0272C35.3721 42.3714 35.5056 43.8815 35.6225 45.1758C35.7894 46.9016 35.923 47.2667 36.0064 47.3165C36.3069 47.8143 35.6225 48.3287 35.2886 47.8143C35.155 47.7645 34.9881 47.5156 34.7377 45.5077C34.6041 44.3793 34.4873 42.9854 34.4038 41.5251C33.1351 42.2884 32.2169 42.7862 31.1151 43.367C30.7312 43.533 30.3472 42.9024 30.8146 42.7364C31.8663 42.0229 33.2185 41.3591 34.3537 40.6456C34.2703 39.2682 34.2703 38.09 34.2703 37.0778C34.3537 35.186 34.5207 34.6882 34.7377 34.4393C35.0382 33.9415 35.7894 34.4393 35.5056 34.9371C35.5056 34.9371 35.2886 35.2358 35.2552 37.0778C35.1717 37.8743 35.2552 38.8866 35.2552 40.098C37.7092 38.5879 41.4653 36.1153 43.2683 33.9249C43.7691 33.3441 44.3701 32.4646 44.2866 31.7842C44.2866 31.4025 44.0362 30.9379 43.2683 30.5728C41.9996 29.9422 40.0631 29.7763 38.6608 29.7763C35.1217 29.6436 30.848 30.1912 27.5092 30.9545C25.7731 31.3362 23.1187 32.0497 21.5996 32.9292C21.2991 33.0952 20.4644 33.593 20.5479 34.0576C20.7148 34.6052 19.7799 34.821 19.6965 34.2236C19.5295 33.593 20.0804 33.0454 20.5812 32.6637C22.2339 31.5353 25.3891 30.6558 27.3757 30.1912C30.8313 29.3946 35.105 28.8138 38.6441 28.8968C40.2133 28.8968 42.2333 29.0628 43.6189 29.7763C44.4703 30.158 45.0879 30.7886 45.138 31.6681C45.2883 32.6803 44.6205 33.7257 43.9861 34.4891Z" fill="#803F59"/>
<path d="M55.7208 46.4898C54.5027 46.8255 53.0677 47.2116 51.7996 47.2619C50.7817 47.3459 49.6471 47.2619 49.0631 46.4563C48.8128 46.1206 48.6459 45.6842 48.6459 45.231C48.1787 45.617 47.6281 46.0031 47.0441 46.3388C46.41 46.7248 45.7425 47.0102 44.975 47.2284C44.3409 47.3627 43.7068 47.3627 43.3231 46.8927C42.8559 46.4731 42.9393 45.7009 43.1061 45.1135C43.5734 44.1735 44.6246 43.2 45.4756 42.5621C46.2431 41.9243 47.4946 41.1186 48.429 41.169C49.013 41.3033 49.3134 41.7565 49.28 42.2768C49.1966 42.6629 49.0297 42.9146 48.8962 42.9482C48.5625 43.2839 48.1287 42.8139 48.3956 42.5286C48.3956 42.4447 48.4457 42.2768 48.4457 42.1929C48.4457 42.025 47.8951 42.1929 47.7782 42.1929C47.1942 42.4447 46.5602 42.9146 46.0429 43.3007C45.3755 43.8546 44.3576 44.6938 43.9738 45.466C43.8403 45.8856 43.8904 46.2381 43.9738 46.3556C44.1073 46.5234 44.6079 46.4898 44.7748 46.4898C45.4923 46.2716 46.1263 46.0199 46.7604 45.7177C47.3945 45.3317 48.3289 44.6938 48.8295 44.1064C48.963 43.7203 49.1632 43.435 49.3301 43.1664C49.5803 42.7804 49.8306 42.5286 50.0976 42.3104C50.3479 42.1425 50.6816 42.1761 50.8151 42.3943C50.982 42.5286 50.982 42.7804 50.8652 42.9482C50.6149 43.4518 50.3145 43.8378 49.8473 44.2239C49.4635 44.996 49.547 45.7009 49.7138 45.9695C50.0976 46.6073 51.0988 46.7416 51.8163 46.7416C52.9342 46.7416 54.5862 46.6241 55.7208 46.4898Z" fill="#803F59"/>
<path d="M67.0108 46.6825C65.9005 47.1496 64.4474 47.4499 63.2882 47.4499C62.3412 47.4499 61.4268 47.1997 60.7248 46.6492C60.4309 46.2655 60.1043 45.7984 59.9737 45.2979C59.8104 45.5148 59.5655 45.765 59.3533 45.9318C58.4879 46.6992 57.247 47.5834 56.1368 47.6668C55.5163 47.6668 55.0265 47.4499 54.651 47.0829C54.0305 46.449 53.9979 45.6482 53.8999 44.7641C53.8999 43.7465 54.0305 42.145 54.1122 41.2275C54.1611 40.5935 55.0265 40.727 54.9775 41.2775C54.8959 42.7455 54.7653 43.7631 54.7653 44.6973C54.8469 45.4647 54.8959 46.082 55.2551 46.4323C55.5 46.6825 55.7449 46.816 56.0878 46.816C57.0021 46.816 58.1124 46.0486 58.8471 45.4314C59.2226 45.0977 59.5982 44.664 59.9247 44.297C59.9247 43.7131 60.0553 43.1626 60.2186 42.6955C60.3492 42.2784 60.7901 42.2784 61.0513 42.562C61.2962 43.0291 61.1003 43.6631 60.8064 44.1635C60.7248 44.664 60.8064 45.2145 61.0513 45.6816C61.4595 46.4823 62.4065 46.816 63.3208 46.9494C64.5454 47.0162 65.8189 46.8994 67.0108 46.6825Z" fill="#803F59"/>
<path d="M71.0171 46.695C70.1179 47.0739 68.8794 47.5681 67.9293 47.6175C67.4203 47.6999 66.8943 47.6999 66.4193 47.4528C66.1648 47.2386 65.9952 46.9915 65.7746 46.3326C65.5201 44.9653 65.5201 42.3296 65.6049 40.9623C65.6049 39.3314 65.7746 36.218 66.0291 34.6365C66.1648 34.0929 67.0131 34.2576 67.0131 34.8507C66.6738 36.218 66.5381 39.6444 66.5381 41.0941C66.4872 42.346 66.4023 44.9653 66.6738 46.2173C66.8095 46.7115 66.8095 46.7609 67.4033 46.8762C67.9123 46.9586 68.557 46.9586 68.8624 46.8762C69.7277 46.8268 70.4911 46.7444 71.0171 46.695Z" fill="#803F59"/>
<path d="M74.2946 46.7812C73.908 47.0353 73.3533 47.2046 73.0171 47.3402C72.5969 47.4757 71.7061 47.8145 70.9833 47.5942C70.479 47.4587 70.3109 47.0353 70.0924 46.5271C69.9243 45.7479 69.9243 43.8676 69.9243 42.8005C69.9243 42.1568 70.8656 42.0721 70.8656 42.6649C70.8152 43.7321 70.8152 45.5277 71.0001 46.2561C71.1346 46.5101 71.2186 46.6795 71.4707 46.815C71.7229 47.0691 72.5297 46.9506 73.0003 46.8997C73.4037 46.815 73.908 46.7812 74.2946 46.7812ZM71.185 37.905C71.2354 37.6509 71.5716 37.5154 71.8237 37.5662C72.0758 37.6509 72.2439 37.905 72.2103 38.1591C72.2103 38.2099 72.0758 38.4132 72.0758 38.4132C71.9918 38.7181 72.328 38.7181 72.1263 38.9722C71.9918 39.1924 71.8237 39.2263 71.622 39.1077C71.4539 38.9722 71.3194 38.8028 71.2018 38.5995C71.1009 38.2099 71.185 37.9558 71.185 37.905Z" fill="#803F59"/>
<path d="M85.9486 46.6466C85.1642 46.9432 84.1672 47.1903 83.301 47.3057C82.5493 47.3057 81.8138 47.3057 81.1111 47.0585C79.8363 46.6466 79.3297 45.3119 79.3787 43.9278C79.3787 43.3017 79.5094 42.6756 79.7055 42.0494C78.9538 42.6261 78.3491 43.3017 77.8915 43.8784C77.3521 44.6363 76.7311 45.5096 76.2408 46.2511C76.1591 46.3829 75.6688 47.042 75.6688 47.042C75.4236 47.421 74.8843 47.2562 74.8843 46.7949C74.8843 46.004 74.9334 45.1636 74.8843 44.4221C74.8843 43.796 74.8026 42.7909 74.6719 42.1648C74.5411 41.5386 75.4237 41.3739 75.5381 41.9176C75.6688 42.6261 75.7505 43.7466 75.7832 44.4221V45.4273C76.2408 44.7682 76.7801 44.0596 77.3521 43.3841C77.728 42.8898 78.1366 42.379 79.0845 41.6375C79.4931 41.3079 79.869 41.0114 80.1958 40.8795C80.7352 40.6324 81.1111 41.0443 80.8169 41.5386C80.8169 41.5386 80.6044 42.0329 80.441 42.6591C80.1958 43.6148 80.0651 44.867 80.5717 45.6579C81.1111 46.4983 82.1897 46.663 83.2193 46.663C84.1836 46.7784 85.1642 46.6466 85.9486 46.6466Z" fill="#803F59"/>
<path d="M94.3254 46.6017C93.3587 46.8212 92.3421 47.0745 91.3254 47.1927C90.3088 47.3616 89.2588 47.5811 88.2421 47.6149C87.2755 47.6993 85.7088 47.7499 84.9588 47.1927C84.6255 46.9394 84.4922 46.5511 84.4922 46.1627C84.4922 45.5717 84.7088 44.9301 84.8755 44.4067C85.2088 43.6299 85.6422 42.9545 86.2255 42.3129C86.8588 41.5868 87.9088 40.9114 88.7921 40.8101C89.5088 40.7594 90.0088 41.1478 90.1421 41.7894C90.3088 42.5662 89.8921 43.6299 89.4254 44.2716C88.7588 45.1665 87.9088 45.9432 86.8922 46.3991C86.6422 46.5342 86.3922 46.6524 86.0922 46.7875C86.7255 46.9226 87.6088 46.9226 88.2421 46.9226C89.2588 46.9226 90.2588 46.8381 91.2754 46.7875C92.3087 46.7368 93.3254 46.6862 94.3254 46.6017ZM85.4755 46.4329C85.8588 46.2134 86.2755 46.0445 86.6088 45.8419C87.4921 45.4198 88.1755 44.6937 88.6754 43.8832C89.0088 43.4104 89.3921 42.5155 89.2588 42.0089C89.2588 41.8739 89.1254 41.7557 88.8754 41.8401C88.4921 41.8907 87.6588 42.2285 86.8922 43.0389C86.4755 43.5455 86.0088 44.2716 85.7588 44.8288C85.6088 45.2847 85.3922 45.9601 85.4755 46.4329Z" fill="#803F59"/>
<path d="M28.8242 0.631836C28.7833 0.631836 28.7424 0.631836 28.7151 0.631836C13.9827 0.631836 1.6626 11.8606 1.6626 26.1098C1.6626 38.9504 11.6659 49.5967 24.4767 51.5743C18.7527 50.2604 14.487 45.1675 14.487 39.0723C14.487 31.9883 20.2655 26.2453 27.3932 26.2453C27.3932 26.2453 28.3063 26.2182 28.756 26.2182C28.7696 26.2182 28.7969 26.2182 28.8105 26.2182C35.911 26.2182 41.6758 20.4887 41.6758 13.4318C41.6758 6.37488 35.9246 0.631836 28.8242 0.631836ZM29.124 16.7638C29.0013 16.7638 28.865 16.7503 28.7424 16.7368C27.0116 16.5471 25.6623 15.0978 25.6623 13.3234C25.6623 11.5626 26.9979 10.0997 28.7288 9.91011C28.8514 9.89657 28.9877 9.88302 29.124 9.88302C31.032 9.88302 32.5856 11.4271 32.5856 13.3234C32.5856 15.2197 31.032 16.7638 29.124 16.7638Z" fill="url(#paint0_linear_446_243)"/>
<path d="M41.9619 5.42676C43.4065 6.23945 44.7558 7.22823 46.0096 8.33892C47.2634 9.43606 48.3673 10.7093 49.3622 12.0502C49.8664 12.7139 50.3025 13.4318 50.7387 14.1497L51.3383 15.2604C51.4473 15.4365 51.5291 15.6396 51.6109 15.8293L51.8698 16.3981C51.9516 16.5878 52.047 16.7774 52.1288 16.967L52.3468 17.5495L52.5649 18.1319C52.6058 18.2267 52.6466 18.3215 52.6739 18.4299L52.7693 18.7279L53.1373 19.9334L53.4235 21.1524L53.4916 21.4639L53.5461 21.7755L53.6415 22.3985L53.7369 23.0216C53.7642 23.2248 53.7778 23.4415 53.8051 23.6447L53.8596 24.2677C53.8732 24.4709 53.9141 24.6876 53.9141 24.8908C53.9277 25.3107 53.9413 25.7306 53.9413 26.1505C53.955 26.3537 53.9413 26.5704 53.9413 26.7736C53.9277 26.9767 53.9277 27.1935 53.9141 27.3966C53.8868 27.8165 53.8732 28.2364 53.8187 28.6428C53.7505 29.4825 53.6006 30.2952 53.4371 31.1215C52.742 34.3858 51.3519 37.5011 49.3622 40.1559C51.0657 37.3251 52.2514 34.2097 52.8102 30.9996C53.3553 27.7894 53.2872 24.4845 52.6194 21.315L52.3468 20.123L52.0061 18.9581L51.9243 18.6601C51.8971 18.5653 51.8562 18.4705 51.8289 18.3757L51.6245 17.8068L51.4201 17.2379C51.3519 17.0483 51.2565 16.8587 51.1748 16.6826L50.9295 16.1272C50.8477 15.9376 50.7659 15.748 50.6705 15.5719L50.1117 14.4883C49.7029 13.784 49.3077 13.0796 48.8307 12.4024L48.49 11.8877C48.3673 11.7251 48.2446 11.5626 48.122 11.4001L47.754 10.9125L47.5632 10.6686C47.5087 10.5874 47.4269 10.5061 47.3724 10.4384L46.582 9.50378L45.737 8.60982C44.5786 7.4585 43.3111 6.38845 41.9619 5.42676Z" fill="#803F59"/>
<path d="M53.7775 25.6763C53.8593 24.4437 53.9683 23.2111 54.091 21.9786C54.1591 21.369 54.2137 20.746 54.2954 20.1364C54.3636 19.5269 54.4453 18.9039 54.5271 18.2943C54.6906 17.0753 54.8951 15.8563 55.0722 14.6237C55.2494 13.4046 55.3993 12.172 55.522 10.9394L55.5629 10.5737L55.6992 10.9259C55.9445 11.5896 56.1898 12.2398 56.4215 12.917C56.6531 13.5807 56.8576 14.2579 57.0211 14.9487C57.3482 16.3303 57.5117 17.7661 57.3618 19.2018C57.3209 19.554 57.2664 19.9197 57.1847 20.2584C57.1029 20.6105 56.9939 20.9491 56.8712 21.2878C56.6123 21.965 56.2443 22.5881 55.8491 23.1705C55.0586 24.3489 54.1455 25.419 53.5731 26.7057L53.5322 26.6922C53.6413 26.3536 53.7775 26.0285 53.9411 25.717C54.0092 25.5544 54.1046 25.4054 54.1864 25.2429C54.2682 25.0939 54.3636 24.9314 54.459 24.7824C54.8269 24.1728 55.2085 23.5904 55.5765 22.9944C55.9308 22.3984 56.2716 21.7889 56.5032 21.1523C56.7349 20.5157 56.8848 19.8385 56.953 19.1477C57.0211 18.4704 57.0347 17.7661 56.9939 17.0888C56.9393 16.398 56.8439 15.7073 56.694 15.03C56.5577 14.3528 56.3806 13.6755 56.1898 12.9983C55.999 12.321 55.7946 11.6573 55.5765 10.9801L55.74 10.9665C55.5629 12.1856 55.3993 13.4182 55.2767 14.6372C55.154 15.8698 55.0586 17.1024 54.9223 18.3214C54.8542 18.9309 54.7724 19.554 54.6906 20.1635C54.6089 20.7731 54.5271 21.3826 54.4453 22.0056C54.2682 23.2247 54.0774 24.4437 53.8593 25.6628L53.7775 25.6763Z" fill="#803F59"/>
<path d="M52.5647 19.6354C52.6738 18.5383 52.3739 17.4818 52.0605 16.4524C51.8969 15.9241 51.7334 15.4094 51.6107 14.8676C51.4744 14.3258 51.4063 13.7705 51.379 13.2151C51.3382 12.1044 51.5153 11.0073 51.638 9.92371C51.7743 8.84012 51.8833 7.74298 51.8833 6.65938V6.2124L52.1286 6.6052C52.6737 7.47208 53.0417 8.44731 53.2598 9.43609C53.3688 9.93726 53.4506 10.4384 53.5051 10.9396C53.546 11.4407 53.5732 11.9554 53.546 12.4566C53.5187 13.4725 53.3961 14.4748 53.2053 15.4636C53.0145 16.4524 52.7828 17.4276 52.5238 18.4028L52.483 18.3893C52.6192 17.4005 52.7828 16.3982 52.8918 15.4094C53.0145 14.4206 53.0962 13.4318 53.1099 12.4431C53.1099 11.9554 53.0962 11.4543 53.0553 10.9667C53.0145 10.4791 52.9599 9.99143 52.8645 9.50382C52.6737 8.54213 52.3603 7.59398 51.8969 6.72711L52.1422 6.67293C52.0605 7.77007 51.8697 8.85366 51.7606 9.93725C51.7061 10.4791 51.6516 11.0208 51.6516 11.5762C51.638 12.118 51.6516 12.6598 51.7061 13.2016C51.7334 13.4725 51.7606 13.7434 51.8152 14.0007L51.8424 14.2039L51.8833 14.4071C51.9106 14.5425 51.9378 14.6644 51.9651 14.7999C52.0877 15.3281 52.2376 15.8564 52.3739 16.3846C52.4421 16.6555 52.5102 16.9129 52.5647 17.1838C52.592 17.3192 52.6192 17.4547 52.6465 17.5901C52.6601 17.7256 52.6874 17.861 52.701 18.01C52.7283 18.2809 52.7419 18.5654 52.7283 18.8363C52.7283 18.9717 52.701 19.1072 52.6874 19.2562C52.6737 19.3916 52.6329 19.5271 52.6056 19.6625L52.5647 19.6354Z" fill="#803F59"/>
<path d="M49.8255 12.9443C49.3621 12.416 48.9805 11.82 48.6807 11.1834C48.3672 10.5468 48.1355 9.88311 47.9856 9.19232C47.8357 8.50153 47.8085 7.7972 47.7812 7.09286C47.7676 6.74069 47.7676 6.38853 47.7676 6.0499V5.79255C47.7676 5.71128 47.7676 5.60292 47.8085 5.50811C47.8493 5.39975 47.9584 5.30493 48.0947 5.30493C48.2309 5.30493 48.3263 5.37266 48.3945 5.44038C48.4763 5.50811 48.5308 5.58938 48.5853 5.67064C48.6398 5.76546 48.6671 5.83318 48.7079 5.91445C48.7897 6.07699 48.8579 6.22599 48.926 6.38853C49.0759 6.7136 49.1986 7.03868 49.3212 7.36376C49.5665 8.02746 49.7573 8.70471 49.8664 9.40904C49.9209 9.76121 49.9618 10.1134 49.9754 10.4655C49.989 10.8177 49.989 11.1699 49.989 11.5085C49.989 12.1993 50.0163 12.8765 50.2071 13.5538L50.1662 13.5673C50.0026 13.2558 49.8936 12.9172 49.8255 12.565C49.7437 12.2128 49.7028 11.8742 49.6756 11.5221C49.6074 10.8177 49.5802 10.1405 49.4439 9.47677C49.3212 8.79952 49.1577 8.13582 48.9533 7.48566C48.8442 7.16059 48.7352 6.83551 48.6262 6.51043L48.449 6.02281C48.4217 5.94154 48.3945 5.84673 48.3536 5.79255C48.3263 5.72482 48.2855 5.6571 48.2309 5.60292C48.1764 5.54874 48.1219 5.50811 48.081 5.50811C48.0401 5.50811 47.9856 5.5352 47.9584 5.58937C47.9039 5.71128 47.9039 5.90091 47.8902 6.07699C47.863 6.41562 47.8766 6.76778 47.8902 7.10641C47.9447 7.7972 48.1083 8.47444 48.2991 9.1246C48.4899 9.7883 48.6943 10.4385 48.9533 11.0751C49.2122 11.7117 49.512 12.3212 49.8527 12.9443H49.8255Z" fill="#803F59"/>
<path d="M46.0914 8.59629C45.5599 8.13576 45.0556 7.6346 44.6331 7.06571C44.2106 6.49683 43.8563 5.86022 43.6383 5.18297C43.4066 4.50572 43.3248 3.80139 43.2703 3.09705C43.2158 2.39272 43.2158 1.70192 43.2839 0.997588L43.3112 0.740234L43.4747 0.943408C43.9244 1.48521 44.3742 2.04055 44.8103 2.59589C45.0284 2.88033 45.2464 3.16478 45.4508 3.46276C45.6416 3.7743 45.8188 4.09938 45.9415 4.45154C46.1868 5.14234 46.3231 5.86022 46.3639 6.5781C46.4185 7.29598 46.3912 8.00031 46.3367 8.70465H46.2958C46.214 8.00031 46.1459 7.29598 46.0369 6.60519C45.9278 5.9144 45.7779 5.23715 45.5326 4.60054C45.41 4.27546 45.26 3.97747 45.0829 3.67948C44.9057 3.38149 44.7013 3.09705 44.4968 2.81261C44.088 2.24372 43.6928 1.64774 43.2975 1.05177L43.4883 1.01113C43.3521 1.68838 43.2975 2.37917 43.3929 3.06996C43.4338 3.40858 43.5156 3.74721 43.611 4.08583C43.7064 4.41091 43.829 4.73599 43.9517 5.04752C44.0062 5.21006 44.088 5.35905 44.1561 5.52159C44.1834 5.60286 44.2243 5.67059 44.2652 5.75186C44.306 5.83313 44.3333 5.9144 44.3742 5.98212C44.456 6.13111 44.5241 6.28011 44.6195 6.4291C44.7013 6.5781 44.7967 6.72709 44.8784 6.86254C45.2464 7.44497 45.6961 7.97323 46.105 8.54211L46.0914 8.59629Z" fill="#803F59"/>
<path d="M53.1234 25.8118C52.5647 25.0262 51.9787 24.2812 51.3517 23.5498C50.7385 22.8184 50.0707 22.1411 49.3892 21.4774C49.0485 21.1524 48.6942 20.8273 48.3399 20.5022C48.1627 20.3397 47.9719 20.1907 47.7947 20.0417C47.6175 19.8927 47.4267 19.7437 47.2359 19.5947C46.4728 19.0123 45.655 18.5111 44.7965 18.0912L44.8782 17.9828C45.2462 18.3756 45.5733 18.8091 45.8731 19.2425C46.1729 19.6895 46.4591 20.1365 46.7317 20.597C47.0043 21.0575 47.2632 21.5181 47.5494 21.9651C47.822 22.412 48.1218 22.859 48.4353 23.2789C49.0485 24.1187 49.7572 24.9178 50.5886 25.5274C50.793 25.6764 51.011 25.8254 51.2427 25.9473C51.4744 26.0692 51.7061 26.1911 51.9378 26.2859C52.4148 26.4755 52.9327 26.5974 53.4505 26.6245L53.3551 26.7193C53.3688 26.4755 53.3415 26.2317 53.287 25.9879C53.2325 25.7441 53.1371 25.5138 53.0144 25.2971L53.0417 25.27C53.1916 25.4732 53.3142 25.7034 53.396 25.9608C53.4778 26.2046 53.5323 26.462 53.5323 26.7329V26.8277H53.4369C52.8918 26.8548 52.333 26.7735 51.8151 26.5839C51.2972 26.4078 50.8066 26.1504 50.3432 25.8389C49.4301 25.2158 48.6942 24.4031 48.0673 23.5227C47.454 22.6423 46.9225 21.6942 46.4319 20.7596C46.1866 20.2855 45.9412 19.825 45.6687 19.3644C45.3961 18.9174 45.0963 18.4705 44.7556 18.0777L44.5103 17.7932L44.8373 17.9693C45.6959 18.4163 46.5136 18.9174 47.3177 19.4457C47.5221 19.5811 47.7129 19.7166 47.9174 19.852C48.1082 20.001 48.3126 20.1365 48.5034 20.2855C48.6942 20.4345 48.885 20.5835 49.0758 20.7325C49.253 20.895 49.4438 21.044 49.6209 21.2065C50.3296 21.8702 50.9838 22.5881 51.5698 23.3466C52.1558 24.1051 52.6873 24.9178 53.1371 25.7712L53.1234 25.8118Z" fill="#803F59"/>
<path d="M51.5836 18.7821C50.943 18.9311 50.2616 18.8498 49.6347 18.6467C49.0078 18.4435 48.4081 18.1049 47.9175 17.685C47.4132 17.2651 47.0044 16.7639 46.5683 16.2899C46.3502 16.046 46.1322 15.8158 45.9277 15.5584C45.7233 15.3011 45.5325 15.0302 45.4235 14.7051L45.3145 14.4207L45.587 14.5832C45.8596 14.7457 46.1322 14.8947 46.4047 14.976C46.6773 15.0708 46.9908 15.0844 47.3178 15.1521C47.6449 15.2198 47.9584 15.3417 48.2582 15.4907C48.5444 15.6397 48.817 15.7887 49.1032 15.9648C50.1934 16.642 51.1747 17.4683 51.9924 18.4435L51.9651 18.4706C51.4609 18.0778 50.9703 17.6985 50.4524 17.3464C49.9345 16.9942 49.4166 16.6556 48.8715 16.3305C48.5989 16.1679 48.3263 16.019 48.0674 15.87C47.7948 15.721 47.5223 15.5991 47.2361 15.5313C46.9499 15.4636 46.6228 15.423 46.2957 15.2875C45.9823 15.1521 45.7097 14.9625 45.4644 14.7728L45.6415 14.6374C45.7097 14.9354 45.8596 15.2198 46.0368 15.4636C46.2139 15.721 46.432 15.9512 46.65 16.195C47.0862 16.6556 47.5904 17.0619 48.1083 17.4141C48.3672 17.5902 48.6262 17.7662 48.8987 17.9288C49.1713 18.0913 49.4439 18.2268 49.7301 18.3351C50.0163 18.457 50.3161 18.5383 50.6296 18.606C50.943 18.6738 51.2565 18.7008 51.5699 18.7144L51.5836 18.7821Z" fill="#803F59"/>
<path d="M49.7845 12.89C49.144 13.0254 48.4762 13.039 47.822 12.9713C47.1678 12.9035 46.5137 12.7545 45.9004 12.4972C45.2871 12.2398 44.7283 11.8877 44.1832 11.522C43.9106 11.3323 43.6517 11.1427 43.3927 10.9395C43.2701 10.8312 43.1338 10.7363 43.0111 10.628C42.8885 10.5061 42.7658 10.3706 42.7249 10.1675C42.7113 10.0726 42.7113 9.96429 42.7522 9.86947C42.7931 9.77466 42.8612 9.69339 42.9294 9.62566C43.0111 9.55794 43.0929 9.51731 43.1883 9.47667C43.2837 9.44958 43.3791 9.43604 43.4745 9.43604C43.6653 9.43604 43.8289 9.46313 43.9924 9.49022C44.1559 9.5173 44.3195 9.55794 44.483 9.59857C45.1236 9.76111 45.7505 10.0049 46.3365 10.33C47.4949 10.9666 48.517 11.7793 49.471 12.6597L49.4438 12.6868C48.3262 12.0096 47.2632 11.2781 46.1321 10.6957C45.5733 10.3977 44.9873 10.1404 44.3876 9.95074C44.2377 9.89656 44.0878 9.86947 43.9243 9.82884C43.7743 9.7882 43.6244 9.76111 43.4745 9.74757C43.3382 9.73402 43.2019 9.76111 43.1065 9.82884C42.9975 9.89656 42.943 10.0049 42.943 10.1268C42.9566 10.2487 43.0248 10.3842 43.1338 10.4925C43.2292 10.6144 43.3655 10.7093 43.4745 10.8176C43.7198 11.0343 43.9788 11.224 44.2513 11.3865C44.7965 11.7251 45.4098 11.9554 46.0094 12.1586C46.6091 12.3617 47.2223 12.5243 47.8629 12.6326C48.4898 12.741 49.1303 12.7952 49.7845 12.8223V12.89Z" fill="#803F59"/>
<path d="M53.0962 31.4873C53.2188 31.0403 53.396 30.6069 53.6004 30.187C53.8049 29.7671 54.0502 29.3608 54.3228 28.9815C54.8679 28.223 55.5357 27.5457 56.2989 26.9904C56.3943 26.9227 56.4897 26.8549 56.5578 26.7872C56.626 26.7195 56.6532 26.6382 56.6805 26.5163C56.7214 26.2861 56.8304 26.0422 56.9803 25.8526C57.1302 25.663 57.3346 25.5005 57.58 25.4192C57.7026 25.3785 57.8389 25.365 57.9752 25.4056C58.0978 25.4463 58.2205 25.514 58.3023 25.6359C58.384 25.7443 58.3977 25.9068 58.3568 26.0287C58.3159 26.1506 58.2341 26.259 58.1524 26.3402C57.9752 26.5028 57.7844 26.6518 57.58 26.7601C57.1711 26.9904 56.7077 27.1258 56.2307 27.1258C56.6941 27.0717 57.1438 26.9227 57.5254 26.6789C57.7162 26.557 57.907 26.408 58.057 26.259C58.1251 26.1777 58.1932 26.0829 58.2205 25.9881C58.2478 25.8933 58.2341 25.7984 58.1796 25.7172C58.1251 25.6359 58.0297 25.5817 57.9343 25.5682C57.8389 25.5411 57.7299 25.5546 57.6345 25.5953C57.4437 25.663 57.2665 25.812 57.1302 25.9881C56.9939 26.1642 56.9122 26.3538 56.8713 26.584C56.8576 26.6382 56.844 26.706 56.8168 26.7601C56.7895 26.8279 56.7486 26.882 56.7077 26.9362C56.6123 27.031 56.5169 27.0852 56.4215 27.1665C55.672 27.7083 55.0178 28.3584 54.459 29.0899C54.1728 29.4556 53.9275 29.8484 53.7095 30.2547C53.4505 30.634 53.2597 31.0539 53.0962 31.4873Z" fill="#803F59"/>
<path d="M52.4556 33.0042C52.3602 32.2321 52.0468 31.5278 51.6652 30.8776C51.4607 30.5526 51.2563 30.241 51.0246 29.9295C50.902 29.7805 50.793 29.6315 50.6703 29.4825C50.5476 29.3335 50.425 29.1574 50.316 29.1304C50.2887 29.1168 50.2751 29.1168 50.2478 29.1304C50.2206 29.1304 50.1797 29.1574 50.1388 29.171C50.057 29.2116 49.948 29.2658 49.839 29.2793C49.6209 29.32 49.3892 29.2929 49.1848 29.1845C48.7896 28.9678 48.5988 28.4531 48.7759 28.0332C48.8168 27.9249 48.8986 27.83 49.0076 27.7759C49.1167 27.7217 49.2393 27.7081 49.3483 27.7217C49.5664 27.7488 49.7572 27.8436 49.9071 27.979C50.0706 28.1145 50.1933 28.2635 50.2887 28.426C50.3977 28.5886 50.4795 28.7646 50.5613 28.9407C50.3568 28.6156 50.1388 28.2906 49.8253 28.0739C49.6754 27.9655 49.4982 27.8978 49.3347 27.8978C49.2529 27.8978 49.1712 27.9113 49.103 27.9519C49.0485 27.9926 48.994 28.0468 48.9667 28.128C48.8577 28.4396 49.0076 28.8324 49.3074 28.9678C49.4574 29.0355 49.6209 29.0626 49.7844 29.0355C49.8662 29.022 49.9344 28.9949 50.0161 28.9407C50.057 28.9136 50.1115 28.8865 50.1797 28.873C50.2478 28.8595 50.3296 28.8595 50.3977 28.8865C50.534 28.9272 50.6158 29.022 50.6839 29.1033C50.7521 29.1845 50.8066 29.2523 50.8747 29.3335C50.9974 29.4825 51.12 29.6451 51.2291 29.7941C51.4607 30.1056 51.6652 30.4442 51.856 30.7828C52.0468 31.1215 52.1967 31.4872 52.3057 31.8664C52.4011 32.2321 52.4693 32.6114 52.4556 33.0042Z" fill="#803F59"/>
<path d="M44.1424 6.88969C43.6108 6.56462 43.0521 6.28017 42.4661 6.03636C42.0981 5.88737 41.7029 5.71129 41.5257 5.35912C41.3485 5.00695 41.5802 4.45161 41.9754 4.51933C42.2071 4.55997 42.357 4.76314 42.4797 4.96632C42.7795 5.44039 43.0793 5.91446 43.3792 6.38853" fill="#803F59"/>
<path d="M53.9141 24.6469C54.0231 24.2677 54.2003 23.9155 54.3774 23.5769C54.5682 23.2383 54.7727 22.8996 54.9498 22.561C55.3042 21.8702 55.5631 21.1388 55.7403 20.3803C55.9311 19.6353 56.0401 18.8633 56.1355 18.0912C56.1764 17.7119 56.2173 17.3191 56.2445 16.9263L56.3399 15.7615C56.3263 16.5335 56.299 17.3191 56.2309 18.0912C56.1628 18.8633 56.0537 19.6489 55.8629 20.4074C55.6721 21.1659 55.3996 21.9109 55.0316 22.6017C54.8408 22.9403 54.6227 23.2789 54.4319 23.604C54.2411 23.9426 54.0503 24.2812 53.9141 24.6469Z" fill="#803F59"/>
<path d="M53.6281 26.2047C53.3419 26.2859 53.0284 26.1911 52.7695 26.0557C52.5105 25.9202 52.2788 25.7306 52.0335 25.568C51.5565 25.2294 51.0932 24.8637 50.6434 24.4845C50.1937 24.1052 49.7576 23.7124 49.3487 23.2925C49.1443 23.0893 48.9399 22.8726 48.7354 22.6559C48.5446 22.4392 48.3402 22.2225 48.1494 21.9922C48.3538 22.1954 48.5583 22.3985 48.7763 22.6017C48.9808 22.8049 49.1988 23.0081 49.4169 23.1977C49.8393 23.5905 50.2755 23.9833 50.7252 24.3625C51.1613 24.7418 51.6247 25.1075 52.088 25.4597C52.3197 25.6358 52.5514 25.8254 52.7967 25.9744C53.0557 26.1505 53.3419 26.2588 53.6281 26.2047Z" fill="#803F59"/>
<path d="M52.2785 18.5518C52.1286 18.633 51.9378 18.633 51.7743 18.5924C51.6107 18.5518 51.4472 18.4841 51.2973 18.4163C50.9975 18.2673 50.6976 18.1048 50.3978 17.9423C50.098 17.7797 49.8118 17.6036 49.5256 17.4411L49.0895 17.1837C48.9532 17.0889 48.8033 17.0077 48.667 16.9128C48.8169 16.9806 48.9668 17.0618 49.1304 17.1296L49.5801 17.3598C49.8799 17.5088 50.1798 17.6714 50.4659 17.8339C50.7658 17.9964 51.052 18.1725 51.3382 18.3351C51.4881 18.4163 51.6244 18.4976 51.7879 18.5382C51.9378 18.5924 52.115 18.606 52.2785 18.5518Z" fill="#803F59"/>
<path d="M52.333 17.8339C52.3603 17.3734 52.3875 16.9129 52.4012 16.4524C52.4148 15.9918 52.4284 15.5313 52.4284 15.0708C52.4284 14.6103 52.4284 14.1497 52.4284 13.6892C52.4284 13.4589 52.4148 13.2287 52.4148 12.9984L52.4012 12.3076C52.442 12.5379 52.4557 12.7681 52.4829 12.9984C52.5102 13.2287 52.5238 13.4589 52.5374 13.6892C52.5647 14.1497 52.5783 14.6103 52.5783 15.0843C52.5647 15.5449 52.5511 16.0189 52.5102 16.4795C52.4693 16.9129 52.4148 17.387 52.333 17.8339Z" fill="#803F59"/>
<path d="M49.4715 12.4836C49.4579 12.1044 49.4306 11.7116 49.3761 11.3458C49.3216 10.9666 49.2671 10.5873 49.1853 10.2216C49.1035 9.85591 49.0081 9.47665 48.8855 9.11094C48.8309 8.93485 48.7628 8.74522 48.6947 8.56914L48.5993 8.29824C48.5584 8.20343 48.5311 8.12216 48.4902 8.02734C48.5856 8.18988 48.6674 8.36597 48.7492 8.54205C48.8309 8.71814 48.8991 8.89422 48.9672 9.0703C49.1035 9.43602 49.2125 9.80173 49.2943 10.181C49.3761 10.5602 49.4306 10.9395 49.4579 11.3323C49.4987 11.7251 49.4987 12.1044 49.4715 12.4836Z" fill="#803F59"/>
<path d="M48.9672 12.4024C48.4766 12.2398 47.9859 12.0637 47.4953 11.9012C47.0047 11.7387 46.5141 11.5761 46.0234 11.4136C46.5413 11.4813 47.0456 11.6167 47.5362 11.7793C48.0404 11.9418 48.5174 12.145 48.9672 12.4024Z" fill="#803F59"/>
<path d="M45.628 8.01381C45.5463 7.4991 45.4509 6.99794 45.3282 6.49678C45.2055 5.99562 45.0556 5.508 44.8921 5.00684C45.151 5.45382 45.3418 5.95498 45.4645 6.45614C45.5735 6.95731 45.6417 7.48556 45.628 8.01381Z" fill="#803F59"/>
</g>
<defs>
<linearGradient id="paint0_linear_446_243" x1="21.6692" y1="0.631836" x2="21.6692" y2="51.5743" gradientUnits="userSpaceOnUse">
<stop stop-color="#EAA0BE"/>
<stop offset="1" stop-color="#FFEBA3"/>
</linearGradient>
<clipPath id="clip0_446_243">
<rect width="94.3256" height="52" fill="white"/>
</clipPath>
</defs>
</svg>
