<?xml version="1.0" encoding="UTF-8"?>
<svg width="137px" height="293px" viewBox="0 0 137 293" version="1.1" xmlns="http://www.w3.org/2000/svg" xmlns:xlink="http://www.w3.org/1999/xlink">
    <title>Group 6</title>
    <defs>
        <polygon id="path-1" points="0 0.0960342546 136.818413 0.0960342546 136.818413 238.793024 0 238.793024"></polygon>
    </defs>
    <g id="Page-1" stroke="none" stroke-width="1" fill="none" fill-rule="evenodd">
        <g id="Ventouses" transform="translate(-531.000000, -1876.000000)">
            <g id="LISTE-PATHOLOGIES" transform="translate(50.000000, 1848.000000)">
                <g id="Group-6" transform="translate(549.500000, 174.500000) scale(-1, 1) translate(-549.500000, -174.500000) translate(481.000000, 28.000000)">
                    <path d="M94.1919,156.1477 C94.1919,156.1477 94.2289,156.2847 94.2979,156.5487 C94.3609,156.8157 94.4919,157.2017 94.5859,157.7247 C94.7959,158.7697 95.1159,160.3057 95.3609,162.2717 C95.9209,166.2017 96.4479,171.8477 96.6439,178.6377 C96.7559,182.0337 96.7609,185.7127 96.6949,189.6057 C96.5909,193.4967 96.4419,197.6037 96.1039,201.8417 C95.4889,210.3207 94.3319,219.3427 92.5829,228.2737 C91.7119,232.7387 90.6679,237.1767 89.5139,241.5127 C88.3249,245.8427 87.0189,250.0697 85.5509,254.0957 C84.8059,256.1057 84.1069,258.0907 83.2749,259.9847 C82.8779,260.9367 82.4839,261.8767 82.0949,262.8077 C81.6709,263.7237 81.2509,264.6277 80.8369,265.5207 C80.4119,266.4077 80.0149,267.2907 79.5839,268.1447 C79.1389,268.9907 78.7019,269.8247 78.2709,270.6457 C77.4259,272.2897 76.5219,273.8357 75.6289,275.3037 C75.1819,276.0377 74.7619,276.7627 74.3209,277.4547 C73.8609,278.1367 73.4119,278.8027 72.9749,279.4517 C72.0969,280.7457 71.2719,281.9727 70.3879,283.0567 C69.5169,284.1467 68.7659,285.2037 67.9629,286.1037 C67.1589,286.9977 66.4209,287.8177 65.7539,288.5597 C65.4179,288.9257 65.1139,289.2827 64.8039,289.5997 C64.4819,289.9047 64.1799,290.1917 63.8999,290.4577 C63.3379,290.9877 62.8619,291.4377 62.4749,291.8027 C61.6969,292.5207 61.2819,292.9037 61.2819,292.9037 C61.2819,292.9037 61.5939,292.4307 62.1769,291.5437 C62.4709,291.1057 62.8339,290.5657 63.2599,289.9317 C63.6889,289.3017 64.1789,288.5797 64.6699,287.7287 C65.1729,286.8917 65.7309,285.9657 66.3379,284.9577 C66.9259,283.9417 67.5069,282.8077 68.1549,281.6227 C68.4669,281.0217 68.8269,280.4277 69.1389,279.7797 C69.4509,279.1327 69.7719,278.4677 70.1009,277.7847 C70.4329,277.1057 70.7739,276.4097 71.1229,275.6977 C71.4559,274.9777 71.7669,274.2237 72.1009,273.4647 C72.4349,272.7077 72.7759,271.9347 73.1239,271.1467 C73.4709,270.3597 73.7689,269.5287 74.1019,268.7017 C74.4329,267.8737 74.7689,267.0307 75.1099,266.1757 C75.4419,265.3177 75.7399,264.4277 76.0639,263.5367 C76.3859,262.6457 76.7129,261.7427 77.0439,260.8287 C77.3449,259.9027 77.6499,258.9657 77.9589,258.0187 C78.5919,256.1337 79.1819,254.1847 79.7659,252.1987 C80.3799,250.2257 80.8889,248.1767 81.4719,246.1297 C81.9969,244.0637 82.5269,241.9717 83.0629,239.8637 C84.0329,235.6187 85.0359,231.3097 85.8489,226.9517 C86.7469,222.6127 87.4569,218.2317 88.1919,213.9237 C88.5249,211.7627 88.8559,209.6187 89.1829,207.5007 C89.4819,205.3757 89.7759,203.2767 90.0669,201.2117 C91.1869,192.9437 92.0479,185.1827 92.6869,178.5087 C93.0239,175.1717 93.2699,172.1067 93.5039,169.3857 C93.7009,166.6657 93.9079,164.2867 94.0039,162.3277 C94.1079,160.3657 94.1879,158.8227 94.1959,157.7727 C94.2089,156.7157 94.1919,156.1477 94.1919,156.1477" id="Fill-1" fill="#624A7E"></path>
                    <g id="Group-5" transform="translate(0.000000, 0.904000)">
                        <mask id="mask-2" fill="white">
                            <use xlink:href="#path-1"></use>
                        </mask>
                        <g id="Clip-4"></g>
                        <path d="M65.0181,159.877 C64.3831,158.726 63.7661,157.568 63.1311,156.417 C62.4391,155.152 61.7661,153.882 61.1021,152.601 C60.4591,151.359 59.8341,150.116 59.2191,148.862 C58.6141,147.643 58.0461,146.406 57.4561,145.181 C56.8811,143.99 56.2961,142.8 55.6561,141.648 C54.9951,140.453 54.2841,139.296 53.5591,138.146 C52.8631,137.033 52.1671,135.916 51.5141,134.776 C50.8551,133.631 50.2521,132.457 49.6671,131.262 C49.0871,130.071 48.4841,128.893 47.8711,127.714 C47.8291,127.633 47.7831,127.554 47.7391,127.474 C48.4341,128.078 49.1221,128.689 49.8141,129.297 C49.8961,129.416 49.9801,129.532 50.0621,129.651 C51.5461,131.814 52.9601,134.027 54.3971,136.224 C55.1311,137.338 55.8501,138.464 56.6021,139.573 C56.9781,140.12 57.3541,140.671 57.7531,141.201 C57.9731,141.501 58.1921,141.794 58.4071,142.099 C58.5721,142.341 58.7381,142.583 58.9031,142.825 C59.6741,143.932 60.4321,145.056 61.1891,146.174 C61.9321,147.278 62.6461,148.395 63.3741,149.505 C63.5851,149.83 63.7881,150.16 64.0081,150.475 C64.2081,150.765 64.4091,151.055 64.6091,151.345 C64.9451,151.834 65.3031,152.306 65.6581,152.783 C66.4461,153.839 67.2391,154.899 68.0221,155.961 C68.3221,156.371 68.6211,156.776 68.9211,157.187 C69.0601,157.37 69.2001,157.552 69.3341,157.741 C69.7811,158.389 70.2261,159.032 70.6721,159.676 C70.9531,160.087 71.2281,160.494 71.5001,160.906 L72.9941,163.235 C73.7481,164.409 74.5031,165.578 75.2571,166.747 C75.5091,167.135 75.7691,167.518 76.0301,167.9 C76.5521,168.67 77.0731,169.44 77.5951,170.21 C78.3771,171.361 79.1551,172.519 79.9371,173.671 C80.7041,174.809 81.4441,175.979 82.1931,177.133 C82.4201,177.488 82.6421,177.842 82.8541,178.208 C83.3401,179.02 83.8251,179.838 84.3061,180.656 C84.8821,181.629 85.4351,182.614 85.9751,183.61 C86.4691,184.518 86.9581,185.437 87.4191,186.367 C87.8451,187.239 88.2571,188.117 88.6501,189.006 C89.1891,190.219 89.7031,191.447 90.1951,192.686 C90.4361,193.287 90.6811,193.887 90.8981,194.5 C91.0101,194.816 91.1191,195.135 91.2271,195.452 C91.1341,195.343 91.0421,195.232 90.9491,195.122 C89.1701,193.029 87.4001,190.93 85.5571,188.901 C84.6381,187.889 83.7101,186.888 82.7871,185.886 C82.3321,185.39 81.8641,184.905 81.4231,184.398 C80.9581,183.863 80.4881,183.325 80.0231,182.791 C79.7421,182.427 79.4611,182.06 79.1811,181.697 C78.9671,181.423 78.7441,181.154 78.5481,180.864 C78.1061,180.2 77.6601,179.542 77.2131,178.878 C76.7971,178.253 76.4081,177.601 76.0051,176.96 C75.3651,175.94 74.7441,174.909 74.0851,173.9 C73.6671,173.255 73.2641,172.605 72.8331,171.97 C72.3971,171.336 71.9661,170.702 71.5301,170.068 C70.8441,169.067 70.1571,168.06 69.4751,167.053 C69.0491,166.429 68.6091,165.81 68.2011,165.175 C67.7891,164.524 67.3761,163.879 66.9631,163.228 C66.6051,162.67 66.2801,162.08 65.9411,161.505 C65.6231,160.97 65.3231,160.423 65.0181,159.877 L65.0181,159.877 Z M88.7161,179.671 C89.3021,181.707 89.7431,183.775 90.0981,185.873 C90.3531,187.465 90.5271,189.074 90.7121,190.68 C90.3981,189.926 90.0901,189.17 89.7611,188.424 C89.2481,187.265 88.7121,186.117 88.1351,184.992 C87.5521,183.852 86.9461,182.734 86.3221,181.622 C86.0481,181.129 85.7731,180.637 85.4851,180.155 C85.1821,179.649 84.8841,179.143 84.5801,178.632 C84.2971,178.155 84.0091,177.673 83.7261,177.191 C83.6291,177.031 83.5341,176.876 83.4331,176.72 C82.9451,175.968 82.4581,175.217 81.9701,174.465 C81.6991,174.053 81.4321,173.635 81.1561,173.229 C80.3641,172.057 79.5721,170.885 78.7741,169.714 C78.3041,169.032 77.8371,168.35 77.3711,167.667 C77.0461,167.193 76.7111,166.724 76.3991,166.239 C75.6401,165.081 74.8861,163.921 74.1321,162.757 C73.6751,162.064 73.2221,161.371 72.7701,160.672 C72.4881,160.241 72.2111,159.809 71.9161,159.388 C71.4111,158.668 70.9011,157.953 70.3951,157.233 C70.0401,156.735 69.6621,156.249 69.2931,155.763 C68.5011,154.712 67.7041,153.667 66.9021,152.627 C66.4541,152.05 66.0111,151.467 65.5721,150.889 C65.2041,150.402 64.8571,149.894 64.5171,149.391 C63.7741,148.292 63.0601,147.17 62.3031,146.082 C61.5271,144.96 60.7501,143.838 59.9561,142.727 C59.5661,142.176 59.1801,141.62 58.7711,141.085 C58.3831,140.58 57.9991,140.069 57.6341,139.547 C57.2181,138.947 56.8031,138.347 56.3921,137.747 C56.0211,137.21 55.6641,136.657 55.2971,136.11 C54.5651,135.03 53.8431,133.95 53.1111,132.87 C52.7211,132.294 52.3261,131.718 51.9321,131.142 C52.3821,131.533 52.8321,131.925 53.2841,132.315 C54.3461,133.228 55.4031,134.149 56.4561,135.067 C57.4311,135.914 58.3821,136.782 59.3611,137.624 C60.3501,138.48 61.3571,139.314 62.3511,140.169 C62.8941,140.635 63.4551,141.079 63.9851,141.565 C64.4661,142.004 64.9651,142.432 65.4271,142.892 C66.3771,143.841 67.3311,144.785 68.1901,145.826 C69.0151,146.838 69.8351,147.851 70.6531,148.867 C71.2401,149.641 71.8261,150.419 72.4131,151.193 C72.9361,151.882 73.4321,152.603 73.9421,153.308 C74.8821,154.622 75.8491,155.914 76.7521,157.255 C78.2971,159.555 79.8381,161.856 81.2821,164.229 C81.9381,165.308 82.6031,166.382 83.2371,167.478 C83.7081,168.287 84.1791,169.095 84.6451,169.904 C85.3151,171.051 85.9081,172.257 86.4571,173.477 C86.4501,173.462 86.4431,173.447 86.4351,173.432 C87.3261,175.451 88.0961,177.534 88.7161,179.671 L88.7161,179.671 Z M75.1951,196.024 C75.1571,195.998 75.1201,195.971 75.0821,195.944 C74.2021,195.335 73.2701,194.783 72.4911,194.03 C72.3721,193.895 72.2561,193.762 72.1521,193.617 C72.0461,193.465 71.9511,193.313 71.8591,193.154 C71.7111,192.845 71.5901,192.532 71.4931,192.198 C71.4721,192.093 71.4601,191.985 71.4551,191.876 C71.4571,191.796 71.4581,191.716 71.4731,191.64 C71.4821,191.61 71.4921,191.58 71.5001,191.551 C71.5261,191.506 71.5491,191.459 71.5821,191.42 C71.5841,191.42 71.5861,191.419 71.5881,191.419 C71.5831,191.424 71.5781,191.43 71.5731,191.436 C71.5841,191.428 71.5961,191.42 71.6071,191.413 C71.6251,191.407 71.6431,191.401 71.6621,191.395 C71.6521,191.395 71.6431,191.396 71.6331,191.396 C71.6351,191.394 71.6371,191.393 71.6391,191.392 C71.7091,191.391 71.7771,191.399 71.8451,191.416 C71.8341,191.413 71.8241,191.409 71.8131,191.405 C71.8241,191.409 71.8341,191.412 71.8451,191.416 C71.8671,191.421 71.8881,191.427 71.9101,191.434 C71.8901,191.429 71.8681,191.423 71.8451,191.416 C72.0021,191.469 72.1441,191.531 72.2901,191.606 C72.4541,191.721 72.5991,191.847 72.7431,191.985 C73.3191,192.649 73.7781,193.402 74.2081,194.178 C74.2071,194.176 74.2061,194.174 74.2061,194.171 C74.2111,194.182 74.2161,194.191 74.2211,194.202 C74.2331,194.223 74.2451,194.243 74.2561,194.264 C74.2541,194.261 74.2511,194.257 74.2491,194.253 C74.5491,194.812 74.8421,195.371 75.1431,195.925 C75.1231,195.896 75.1071,195.862 75.0871,195.828 C75.1221,195.894 75.1591,195.959 75.1951,196.024 L75.1951,196.024 Z M125.7561,196.613 C125.8841,196.533 126.0111,196.452 126.1371,196.371 C126.1271,196.377 126.1171,196.383 126.1071,196.39 C126.3921,196.21 126.6721,196.028 126.9541,195.845 C127.2071,195.695 127.4621,195.546 127.7211,195.415 C127.9631,195.293 128.2101,195.196 128.4621,195.113 C128.7321,195.039 129.0001,194.982 129.2791,194.961 C129.5341,194.965 129.7741,194.988 130.0251,195.044 C130.0501,195.054 130.0751,195.065 130.1001,195.078 C130.1181,195.094 130.1371,195.109 130.1561,195.126 C130.1611,195.133 130.1671,195.141 130.1721,195.148 C130.1731,195.15 130.1741,195.152 130.1751,195.155 C130.1561,195.182 130.1361,195.21 130.1151,195.236 C130.0111,195.332 129.9051,195.41 129.7931,195.485 C129.6631,195.555 129.5311,195.618 129.3931,195.681 C129.2771,195.739 129.1521,195.797 129.0251,195.841 C128.8161,195.907 128.6081,195.972 128.3991,196.034 C127.5311,196.287 126.6341,196.399 125.7561,196.613 L125.7561,196.613 Z M128.0911,169.911 C128.1031,169.886 128.1141,169.86 128.1261,169.835 C128.4891,169.039 128.8181,168.224 129.1381,167.405 C129.4621,166.571 129.7671,165.723 130.0901,164.883 C130.2411,164.489 130.3821,164.091 130.5581,163.711 C130.7111,163.368 130.8821,163.036 131.0571,162.705 C131.3211,162.247 131.6031,161.802 131.8951,161.361 C132.1601,160.955 132.4621,160.593 132.7841,160.239 C133.0091,160.001 133.2381,159.789 133.5021,159.604 C133.6571,159.526 133.8081,159.461 133.9691,159.404 C134.1461,159.364 134.3141,159.339 134.4921,159.332 C134.6411,159.34 134.7841,159.362 134.9281,159.395 C135.0451,159.434 135.1561,159.482 135.2661,159.542 C135.3381,159.591 135.4051,159.642 135.4731,159.701 C135.5231,159.765 135.5671,159.829 135.6091,159.899 C135.6681,160.036 135.7151,160.171 135.7551,160.316 C135.8201,160.667 135.8361,161.013 135.8381,161.371 C135.8251,161.573 135.8131,161.777 135.7781,161.975 C135.7501,162.131 135.7161,162.284 135.6791,162.438 C135.5261,162.909 135.3321,163.355 135.1151,163.792 C134.7891,164.355 134.4161,164.877 134.0211,165.393 C133.5811,165.978 133.1091,166.541 132.6221,167.087 C132.4801,167.226 132.3371,167.334 132.1711,167.447 C132.1391,167.464 132.1111,167.481 132.0831,167.503 C131.9671,167.577 131.8571,167.654 131.7411,167.728 C131.5841,167.827 131.4281,167.927 131.2711,168.027 C131.2751,168.024 131.2791,168.022 131.2831,168.02 C131.2751,168.025 131.2671,168.029 131.2591,168.035 C131.2251,168.056 131.1921,168.077 131.1581,168.099 C131.1761,168.086 131.1941,168.075 131.2121,168.063 C130.1781,168.693 129.1371,169.306 128.0911,169.911 L128.0911,169.911 Z M111.7121,174.593 C111.7121,174.523 111.7121,174.453 111.7131,174.383 C111.7261,173.966 111.7541,173.554 111.7991,173.138 C111.8491,172.7 111.8791,172.253 111.9431,171.815 C112.0191,171.32 112.0771,170.826 112.1721,170.335 C112.2591,169.902 112.3331,169.465 112.4401,169.035 C112.5391,168.715 112.6341,168.394 112.7791,168.091 C112.7931,168.069 112.8091,168.046 112.8251,168.023 C112.8301,168.019 112.8341,168.015 112.8391,168.011 L112.8401,168.011 C112.8621,168.02 112.8841,168.03 112.9061,168.041 C112.9611,168.078 113.0141,168.12 113.0641,168.166 C113.1451,168.252 113.2161,168.351 113.2791,168.454 C113.3221,168.539 113.3591,168.626 113.3901,168.715 C113.4091,168.773 113.4261,168.829 113.4421,168.886 C113.4851,169.115 113.5071,169.344 113.5121,169.576 C113.5061,169.824 113.4901,170.074 113.4451,170.318 C113.4021,170.572 113.3491,170.818 113.2881,171.067 C113.2061,171.334 113.1241,171.597 113.0241,171.851 C112.9341,172.09 112.8341,172.323 112.7341,172.557 C112.5331,173.023 112.3061,173.475 112.0651,173.916 C112.0741,173.901 112.0821,173.887 112.0921,173.872 C111.9611,174.108 111.8221,174.345 111.7121,174.593 L111.7121,174.593 Z M100.7221,166.24 C100.7751,166.085 100.8321,165.933 100.8851,165.777 C101.0851,165.173 101.3041,164.573 101.4901,163.964 C101.7431,163.135 101.9961,162.3 102.2481,161.465 C102.4641,160.769 102.6501,160.06 102.8471,159.355 C103.2061,158.094 103.5521,156.829 103.9071,155.568 C104.1041,154.878 104.2951,154.184 104.4921,153.494 C104.7151,152.731 104.9131,151.961 105.1111,151.195 C105.4511,149.88 105.7751,148.561 106.1191,147.25 C106.4631,145.934 106.8011,144.619 107.1361,143.304 C107.8291,140.576 108.5511,137.856 109.3251,135.149 C109.5181,134.485 109.7261,133.83 109.9181,133.166 C110.0991,132.552 110.2651,131.936 110.4271,131.319 C110.7661,130.013 111.0961,128.709 111.3931,127.391 C111.6921,126.048 112.0011,124.699 112.2731,123.348 C112.5401,122.017 112.7841,120.682 112.9841,119.34 C113.1881,117.948 113.3911,116.561 113.5901,115.173 C113.6841,114.521 113.7881,113.872 113.8721,113.22 C113.9641,112.522 114.0751,111.822 114.1531,111.125 C114.2281,110.474 114.2981,109.822 114.3731,109.176 C114.4161,108.794 114.4581,108.412 114.4961,108.031 C114.5281,107.746 114.5701,107.465 114.6011,107.181 C114.6831,106.438 114.7541,105.695 114.8161,104.953 C114.8671,104.288 114.9371,103.627 114.9781,102.962 C115.0271,102.242 115.0571,101.523 115.0821,100.803 C115.1081,100.109 115.1051,99.412 115.1121,98.72 C115.1191,97.37 115.2061,96.025 115.2211,94.675 C115.2501,91.93 115.1991,89.185 115.1151,86.441 C115.0771,85.049 115.0341,83.657 114.9911,82.265 C114.9871,82.121 114.9821,81.976 114.9771,81.832 C115.2081,82.796 115.4321,83.762 115.6551,84.727 C116.0351,86.39 116.3401,88.073 116.6361,89.762 C116.6331,89.751 116.6311,89.74 116.6281,89.73 C116.7701,90.601 116.9121,91.472 117.0401,92.343 C117.1861,93.329 117.3231,94.311 117.4591,95.293 C117.5891,96.214 117.6891,97.132 117.7951,98.055 C117.8311,98.376 117.8761,98.696 117.9021,99.013 C117.9451,99.521 117.9831,100.028 118.0261,100.536 C118.0631,101.029 118.1011,101.522 118.1431,102.009 C118.1531,102.155 118.1681,102.3 118.1741,102.447 C118.1921,103.319 118.2151,104.192 118.2341,105.065 C118.2481,105.58 118.2681,106.089 118.2641,106.605 C118.2521,107.56 118.2411,108.516 118.2341,109.471 C118.2201,110.872 118.1451,112.271 118.0931,113.669 C118.0731,114.261 118.0291,114.856 117.9941,115.444 C117.9561,116.159 117.9191,116.869 117.8811,117.58 C117.7861,118.459 117.6911,119.334 117.5961,120.214 C117.5231,120.926 117.4031,121.631 117.2921,122.335 C117.2011,122.933 117.1091,123.524 116.9991,124.118 C116.8561,124.85 116.7321,125.59 116.5751,126.323 C116.2431,127.83 115.9071,129.337 115.5611,130.845 C115.2761,132.096 115.0011,133.352 114.6931,134.599 C114.5651,135.108 114.4421,135.611 114.3141,136.119 C114.2651,136.32 114.2261,136.524 114.1621,136.72 C113.9381,137.407 113.7191,138.093 113.4961,138.775 C113.1261,139.762 112.7591,140.749 112.3661,141.727 C111.9371,142.801 111.5231,143.888 111.0511,144.939 C110.7241,145.678 110.3921,146.417 110.0601,147.156 C109.9021,147.51 109.7301,147.849 109.5541,148.189 C109.2181,148.847 108.8831,149.505 108.5481,150.159 C108.3271,150.587 108.0771,151.002 107.8421,151.422 C107.5361,151.962 107.2251,152.502 106.9321,153.047 C106.5071,153.832 106.0861,154.612 105.6611,155.398 C105.3471,155.979 105.0761,156.582 104.7861,157.177 C104.6491,157.463 104.4941,157.741 104.3681,158.032 C104.2551,158.297 104.1371,158.563 104.0231,158.823 C103.7531,159.441 103.4821,160.055 103.2171,160.673 C102.9341,161.328 102.6641,161.982 102.3721,162.627 C101.8321,163.836 101.2751,165.036 100.7221,166.24 L100.7221,166.24 Z M113.8651,82.526 C113.9211,83.895 113.9761,85.263 114.0281,86.632 C114.0791,87.988 114.1211,89.34 114.1521,90.697 C114.1801,92.049 114.2021,93.407 114.1641,94.764 C114.1251,96.146 114.0591,97.529 114.0441,98.915 C114.0371,99.582 114.0381,100.249 114.0161,100.918 C113.9861,101.612 113.9521,102.307 113.9091,103.003 C113.9111,102.967 113.9141,102.931 113.9191,102.894 C113.9151,102.944 113.9111,102.993 113.9071,103.043 C113.9061,103.044 113.9061,103.045 113.9061,103.046 C113.9061,103.045 113.9071,103.044 113.9071,103.043 C113.8451,103.745 113.7821,104.448 113.7251,105.149 L113.7251,105.145 C113.6201,106.269 113.4821,107.384 113.3491,108.504 C113.2191,109.594 113.0991,110.678 112.9411,111.764 C112.7831,112.845 112.6201,113.922 112.4561,115.004 C112.2941,116.091 112.1261,117.178 111.9591,118.27 C111.8521,118.954 111.7451,119.633 111.6281,120.317 C111.5121,121.007 111.3821,121.687 111.2511,122.373 C110.9971,123.677 110.7001,124.97 110.4081,126.267 C109.7941,128.964 109.1271,131.65 108.3081,134.29 C107.9061,135.574 107.5581,136.885 107.1991,138.181 C106.8361,139.483 106.4971,140.794 106.1621,142.103 C105.4391,144.924 104.6971,147.735 103.9791,150.556 C103.8141,151.198 103.6441,151.84 103.4781,152.483 C103.3921,152.812 103.2851,153.137 103.1881,153.466 C103.1051,153.775 103.0181,154.084 102.9301,154.388 C102.5241,155.818 102.1231,157.249 101.7221,158.679 C101.5181,159.405 101.3121,160.131 101.1081,160.856 C100.9281,161.5 100.7251,162.129 100.5311,162.763 C100.3581,163.335 100.1851,163.907 99.9931,164.47 C99.7591,165.169 99.5201,165.867 99.2861,166.565 C99.2871,166.561 99.2891,166.556 99.2901,166.552 C98.9101,167.526 98.5291,168.496 98.1441,169.47 C97.9971,169.844 97.8311,170.218 97.6751,170.592 C97.4101,171.22 97.1441,171.849 96.8791,172.482 C96.6881,172.936 96.4921,173.386 96.3001,173.839 C96.5761,172.773 96.8471,171.705 97.1131,170.634 C97.4471,169.324 97.7481,168.001 98.0351,166.679 C98.6311,163.897 99.1371,161.095 99.6091,158.291 C99.7181,157.647 99.8311,156.998 99.9301,156.355 C100.0331,155.687 100.1261,155.019 100.2241,154.35 C100.3221,153.682 100.4241,153.008 100.5131,152.341 C100.6021,151.693 100.6721,151.043 100.7621,150.395 C100.9541,148.958 101.1371,147.526 101.3061,146.085 C101.4561,144.782 101.5811,143.47 101.7501,142.171 C101.8411,141.442 101.9471,140.713 102.0571,139.988 C102.1101,139.636 102.1821,139.294 102.2401,138.946 C102.2981,138.599 102.3561,138.246 102.4091,137.899 C102.6321,136.525 102.8171,135.149 103.0211,133.772 C103.2171,132.42 103.4081,131.069 103.5891,129.719 C103.7821,128.286 103.9641,126.85 104.1951,125.425 C104.4051,124.088 104.6771,122.756 104.9681,121.434 C105.2801,120.014 105.5671,118.596 105.8601,117.173 C106.4151,114.439 106.9371,111.692 107.4551,108.945 C107.5731,108.331 107.6931,107.722 107.8361,107.117 C107.9981,106.414 108.1571,105.707 108.3481,105.007 C108.6851,103.768 109.0941,102.544 109.4501,101.308 C109.6431,100.629 109.8111,99.951 109.9751,99.263 C110.1221,98.652 110.2791,98.036 110.4081,97.421 C110.6861,96.125 110.9741,94.834 111.2801,93.545 C111.4401,92.878 111.6001,92.211 111.7641,91.549 C111.9201,90.912 112.0861,90.28 112.2511,89.643 C112.4201,88.975 112.6001,88.312 112.7681,87.639 C112.8541,87.285 112.9401,86.925 113.0311,86.571 C113.1101,86.273 113.1981,85.974 113.2631,85.671 C113.3401,85.333 113.4081,84.996 113.4801,84.657 C113.5401,84.371 113.6051,84.088 113.6571,83.802 C113.7351,83.378 113.7981,82.952 113.8651,82.526 L113.8651,82.526 Z M89.6901,110.78 C89.6791,112.125 89.6541,113.47 89.6281,114.815 C89.6051,115.867 89.5881,116.915 89.5691,117.963 C89.5131,116.842 89.4551,115.722 89.4021,114.604 C89.3491,113.546 89.2711,112.495 89.1941,111.444 C89.1541,110.9 89.1241,110.352 89.0661,109.805 C88.9711,108.912 88.8751,108.018 88.7801,107.12 C88.7141,106.502 88.6301,105.892 88.5551,105.275 C88.4801,104.673 88.4051,104.077 88.3261,103.481 C87.9281,100.581 87.5351,97.681 87.0571,94.791 C86.9461,94.121 86.7891,93.454 86.6401,92.787 C86.4971,92.134 86.3641,91.481 86.2161,90.834 C85.9271,89.548 85.6221,88.27 85.3241,86.99 C85.0001,85.576 84.6781,84.167 84.3541,82.752 C84.0481,81.413 83.7701,80.067 83.4461,78.733 C83.2831,78.067 83.1071,77.411 82.9121,76.752 C82.7221,76.127 82.5381,75.502 82.3581,74.877 C81.9941,73.623 81.5871,72.386 81.2041,71.142 C80.9831,70.439 80.7581,69.741 80.5281,69.044 C80.3311,68.45 80.1101,67.868 79.9031,67.28 C79.4581,66.02 79.0081,64.76 78.5771,63.495 C78.1451,62.214 77.7181,60.933 77.3051,59.641 C77.0961,58.997 76.9151,58.347 76.7291,57.697 C76.5501,57.077 76.3801,56.456 76.2281,55.83 C76.0661,55.173 75.9041,54.516 75.7611,53.854 C75.6171,53.176 75.4781,52.498 75.3341,51.819 C75.2061,51.206 75.1081,50.591 74.9851,49.978 C74.8511,49.324 74.7231,48.676 74.6081,48.021 C74.6151,48.076 74.6271,48.131 74.6341,48.191 C74.4771,47.181 74.3211,46.175 74.1601,45.17 C74.0611,44.529 73.9361,43.895 73.8131,43.259 C73.8231,43.184 73.8371,43.109 73.8501,43.035 C74.3011,43.798 74.8291,44.513 75.3511,45.219 C76.1641,46.304 76.9261,47.421 77.6791,48.555 C78.0501,49.112 78.4221,49.665 78.7791,50.233 C79.1221,50.776 79.4461,51.337 79.7471,51.909 C81.0381,54.362 82.2031,56.894 83.3541,59.432 C83.3241,59.374 83.2981,59.314 83.2721,59.255 C83.4021,59.57 83.5381,59.885 83.6681,60.2 C83.9271,60.81 84.2061,61.419 84.4381,62.04 C84.7281,62.825 85.0181,63.61 85.3121,64.394 C85.5551,65.05 85.7691,65.719 85.9941,66.377 C86.2171,67.024 86.4161,67.673 86.6211,68.322 C86.7931,68.866 86.9271,69.424 87.0661,69.981 C87.2391,70.657 87.4121,71.338 87.5791,72.019 C87.9201,73.393 88.2431,74.768 88.5211,76.161 C88.6551,77.003 88.7851,77.846 88.9101,78.689 C89.0321,79.54 89.1071,80.404 89.1961,81.263 C89.2751,81.97 89.3111,82.685 89.3711,83.394 C89.4101,83.927 89.4541,84.46 89.4781,84.994 C89.5591,86.504 89.6341,88.01 89.6861,89.523 C89.7821,92.316 89.8921,95.103 89.9301,97.899 C89.9541,99.404 89.9581,100.909 89.9251,102.418 C89.8961,103.794 89.8341,105.167 89.8001,106.543 C89.7591,107.956 89.7031,109.364 89.6901,110.78 L89.6901,110.78 Z M73.9551,60.104 C73.8381,57.362 73.7401,54.62 73.6561,51.877 C73.6241,50.954 73.5901,50.028 73.5791,49.101 C73.6631,49.57 73.7521,50.038 73.8401,50.506 C73.9571,51.12 74.0521,51.735 74.1741,52.349 C74.3141,53.032 74.4391,53.716 74.5791,54.399 C74.8401,55.687 75.1581,56.96 75.5031,58.221 C75.6891,58.886 75.8751,59.551 76.0811,60.21 C76.2891,60.863 76.4981,61.512 76.7121,62.16 C77.1081,63.372 77.5231,64.578 77.9521,65.778 C78.2001,66.46 78.4441,67.147 78.6921,67.828 C78.8931,68.396 79.1091,68.963 79.3011,69.537 C79.7281,70.823 80.1321,72.116 80.5501,73.407 C80.9631,74.685 81.3331,75.98 81.7231,77.268 C82.1191,78.586 82.4251,79.931 82.7361,81.28 C83.3691,84.014 83.9981,86.747 84.6451,89.474 C84.9491,90.753 85.2381,92.033 85.5281,93.313 C85.6761,93.97 85.8291,94.627 85.9491,95.297 C86.0661,95.97 86.1801,96.648 86.2931,97.322 C86.5901,99.296 86.8881,101.271 87.1711,103.247 C87.4461,105.139 87.6781,107.039 87.8961,108.94 C87.9551,109.482 88.0221,110.019 88.0661,110.562 C88.1351,111.502 88.2081,112.442 88.2811,113.377 C88.3481,114.241 88.3921,115.107 88.4331,115.974 C88.4121,115.855 88.3911,115.735 88.3711,115.614 C88.3401,115.434 88.3141,115.249 88.2751,115.075 C88.1011,114.247 87.9281,113.419 87.7551,112.597 C87.6171,111.939 87.4601,111.287 87.3081,110.635 C87.1491,109.953 86.9391,109.285 86.7481,108.615 C86.5631,107.975 86.3411,107.347 86.1371,106.719 C85.9231,106.071 85.6911,105.429 85.4681,104.786 C85.2181,104.064 85.0101,103.33 84.7841,102.602 C84.5901,101.983 84.4061,101.363 84.2171,100.739 C83.8151,99.39 83.3861,98.054 82.9571,96.717 C82.7651,96.123 82.5671,95.53 82.3361,94.948 C82.0591,94.244 81.7581,93.545 81.4531,92.848 C80.9451,91.688 80.4691,90.511 80.0501,89.31 C79.8221,88.663 79.5851,88.021 79.3751,87.368 C79.1501,86.655 78.9241,85.941 78.7031,85.223 C78.3031,83.91 77.9171,82.591 77.5261,81.272 C77.1521,80.018 76.8491,78.739 76.4651,77.485 C76.2871,76.89 76.1031,76.291 75.9531,75.684 C75.7861,75.023 75.6001,74.357 75.4561,73.69 C75.1891,72.398 74.9571,71.098 74.7341,69.794 C74.5091,68.248 74.3211,66.698 74.2251,65.134 C74.1191,63.458 74.0281,61.781 73.9551,60.104 L73.9551,60.104 Z M85.0151,127.697 C85.1871,128.03 85.3511,128.365 85.5201,128.699 C85.3801,128.538 85.2411,128.378 85.1011,128.217 C84.9631,128.059 84.8291,127.881 84.6761,127.729 C84.4841,127.544 84.2921,127.355 84.1051,127.165 C83.5251,126.596 82.9451,126.022 82.3691,125.453 C82.2121,125.296 82.0451,125.15 81.8831,124.999 C81.5391,124.682 81.1961,124.366 80.8521,124.044 C80.4401,123.667 80.0331,123.289 79.6171,122.911 C78.6011,121.997 77.5821,121.082 76.5811,120.151 L75.5641,119.201 C75.4031,119.05 75.2501,118.888 75.0921,118.726 C74.6291,118.246 74.1661,117.77 73.7161,117.279 C73.2761,116.792 72.8321,116.305 72.3961,115.817 C71.8881,115.254 71.3881,114.675 70.8691,114.117 C69.0181,112.134 67.1491,110.158 65.2531,108.219 C64.2771,107.215 63.3151,106.196 62.3621,105.161 C61.5181,104.251 60.6781,103.329 59.8621,102.392 C59.4511,101.923 59.0631,101.438 58.6621,100.958 C58.1701,100.368 57.6701,99.789 57.1651,99.21 C56.2991,98.215 55.3601,97.285 54.4021,96.387 C54.1421,96.141 53.8591,95.917 53.5891,95.681 C53.3741,95.498 53.1541,95.325 52.9351,95.153 C52.4071,94.722 51.8791,94.296 51.3521,93.865 C50.3701,93.059 49.3961,92.243 48.4591,91.383 C47.5121,90.51 46.5751,89.626 45.7051,88.666 C45.2851,88.198 44.8691,87.724 44.4441,87.261 C44.0331,86.808 43.6471,86.323 43.2531,85.848 C42.8181,85.284 42.3801,84.721 41.9501,84.153 C41.5711,83.654 41.1641,83.174 40.7251,82.732 C41.0331,82.926 41.3431,83.117 41.6431,83.323 C42.2011,83.705 42.7601,84.087 43.3191,84.469 C44.3911,85.272 45.4581,86.071 46.5081,86.901 C47.7241,87.868 48.9401,88.836 50.1561,89.804 C51.2301,90.659 52.3221,91.483 53.4051,92.317 C53.8101,92.63 54.2051,92.958 54.6061,93.281 C55.2511,93.8 55.8951,94.32 56.5401,94.839 C56.9951,95.209 57.4311,95.606 57.8761,95.991 C58.3421,96.396 58.8261,96.789 59.2821,97.209 C60.2291,98.088 61.1901,98.956 62.1191,99.856 C64.1141,101.779 66.1011,103.712 68.0411,105.694 C68.6321,106.298 69.2231,106.897 69.8091,107.495 C70.2381,107.933 70.6431,108.392 71.0581,108.84 C71.4681,109.283 71.8911,109.71 72.2831,110.17 C72.7511,110.731 73.2241,111.286 73.6961,111.845 C74.7801,113.205 75.8471,114.576 76.8871,115.978 C78.1441,117.67 79.4011,119.363 80.6581,121.055 C81.4761,122.149 82.2621,123.271 83.0571,124.387 C83.1721,124.546 83.2681,124.717 83.3701,124.887 C83.6171,125.291 83.8641,125.694 84.1111,126.098 C84.2321,126.297 84.3531,126.497 84.4751,126.691 C84.5151,126.759 84.5651,126.821 84.6011,126.89 C84.7381,127.159 84.8761,127.428 85.0151,127.697 L85.0151,127.697 Z M40.2211,84.349 C40.0571,83.966 39.8921,83.586 39.7141,83.214 C39.9331,83.423 40.1541,83.629 40.3611,83.851 C40.6391,84.152 40.8951,84.468 41.1501,84.785 C41.5451,85.291 41.9391,85.796 42.3331,86.301 C42.7961,86.883 43.2721,87.458 43.7711,88.002 C44.2351,88.503 44.6901,89.009 45.1491,89.51 C45.6331,90.029 46.1341,90.518 46.6451,91 C47.5591,91.861 48.4861,92.71 49.4401,93.523 C50.4921,94.426 51.5621,95.307 52.6331,96.183 C53.1161,96.576 53.5811,96.985 54.0341,97.416 C54.5351,97.894 55.0131,98.389 55.4861,98.894 C56.4041,99.861 57.2471,100.893 58.0961,101.924 C58.0711,101.885 58.0411,101.852 58.0171,101.818 C58.2411,102.107 58.4741,102.39 58.7031,102.678 C58.9411,102.977 59.1931,103.263 59.4411,103.556 C59.8431,104.035 60.2631,104.493 60.6781,104.961 C61.6721,106.08 62.6801,107.182 63.7011,108.273 C64.6241,109.25 65.5511,110.215 66.4731,111.187 C67.3851,112.159 68.3031,113.121 69.2061,114.098 C69.6161,114.537 70.0251,114.98 70.4311,115.429 C70.8911,115.95 71.3511,116.471 71.8151,116.987 C72.1071,117.312 72.4041,117.636 72.6951,117.961 C72.8931,118.181 73.0861,118.411 73.2931,118.625 C73.5451,118.892 73.8011,119.153 74.0531,119.419 C74.2491,119.624 74.4431,119.844 74.6541,120.043 C75.6061,120.937 76.5641,121.835 77.5301,122.712 C78.6381,123.717 79.7371,124.723 80.8311,125.733 C81.2141,126.093 81.5971,126.452 81.9711,126.822 C82.5801,127.425 83.1901,128.027 83.8011,128.629 C83.9141,128.738 84.0131,128.863 84.1171,128.983 C84.3941,129.298 84.6711,129.619 84.9491,129.94 C85.3971,130.452 85.8431,130.968 86.2911,131.48 C86.7571,132.097 87.2271,132.713 87.6931,133.33 C87.9061,133.795 88.1211,134.26 88.3321,134.726 C87.8261,134.384 87.3241,134.033 86.8151,133.693 C85.9551,133.117 85.0601,132.609 84.1831,132.074 C83.2861,131.531 82.4121,130.951 81.5291,130.386 C81.1601,130.152 80.8091,129.877 80.4531,129.616 C80.0501,129.324 79.6511,129.036 79.2481,128.744 C78.7671,128.371 78.2821,127.998 77.8021,127.63 C76.7921,126.851 75.7911,126.062 74.7861,125.277 C73.7411,124.45 72.7421,123.57 71.7511,122.669 C71.3201,122.277 70.8931,121.88 70.4711,121.478 C69.9701,121.005 69.4501,120.543 68.9631,120.049 C68.3871,119.465 67.8101,118.88 67.2341,118.291 C66.8211,117.873 66.4301,117.428 66.0291,116.989 C64.1521,114.927 62.3341,112.811 60.5211,110.689 C59.6391,109.655 58.7751,108.604 57.9161,107.548 C57.1121,106.564 56.2991,105.585 55.5031,104.596 C55.5431,104.649 55.5881,104.702 55.6331,104.759 C55.5361,104.641 55.4421,104.522 55.3491,104.405 C55.3601,104.419 55.3721,104.433 55.3841,104.447 C55.3631,104.422 55.3431,104.397 55.3231,104.372 C55.3301,104.381 55.3371,104.391 55.3451,104.4 L55.2731,104.311 C55.2811,104.32 55.2891,104.33 55.2971,104.34 C55.2871,104.327 55.2771,104.314 55.2671,104.302 C55.2391,104.268 55.2111,104.234 55.1851,104.197 C55.1361,104.14 55.0861,104.077 55.0411,104.019 C55.0811,104.072 55.1261,104.125 55.1661,104.178 C55.0501,104.031 54.9331,103.884 54.8141,103.738 C54.0321,102.762 53.2161,101.82 52.3901,100.886 C51.5291,99.915 50.6781,98.939 49.8171,97.969 C48.9711,97.013 48.1161,96.068 47.2341,95.149 C47.0571,94.969 46.8841,94.778 46.7061,94.592 C46.4841,94.369 46.2631,94.146 46.0501,93.907 C45.6771,93.493 45.3181,93.067 44.9651,92.634 C44.1771,91.633 43.4381,90.584 42.7901,89.468 C42.1931,88.447 41.6131,87.415 41.0951,86.34 C41.0221,86.18 40.9511,86.02 40.8811,85.859 C40.8581,85.802 40.8341,85.744 40.8081,85.69 C40.7681,85.583 40.7141,85.48 40.6711,85.376 C40.5261,85.031 40.3711,84.692 40.2211,84.349 L40.2211,84.349 Z M60.9811,57.901 C61.0781,58.259 61.1761,58.617 61.2711,58.977 C61.0541,58.291 60.8461,57.602 60.6391,56.913 C60.2431,55.599 59.8721,54.279 59.4761,52.966 C59.1031,51.731 58.6841,50.516 58.2641,49.305 C58.0411,48.672 57.8131,48.04 57.5911,47.408 C57.3741,46.805 57.1851,46.196 56.9781,45.588 C56.7751,44.984 56.5541,44.387 56.3461,43.784 C56.1391,43.176 55.9171,42.579 55.7101,41.976 C55.2851,40.75 54.8881,39.508 54.4351,38.289 C54.2131,37.691 53.9971,37.089 53.7701,36.492 C53.5441,35.9 53.3101,35.314 53.0691,34.729 C52.8191,34.113 52.5691,33.503 52.2951,32.899 C52.1711,32.624 52.0471,32.354 51.9141,32.085 C51.7901,31.83 51.6531,31.581 51.5301,31.326 C51.0211,30.268 50.5171,29.204 50.0361,28.128 C50.0521,28.163 50.0721,28.202 50.0871,28.236 C49.9281,27.873 49.7681,27.515 49.6071,27.152 C49.3261,26.476 49.0511,25.798 48.8001,25.106 C48.5201,24.345 48.2221,23.591 47.9431,22.831 C47.8051,22.456 47.6681,22.076 47.5351,21.7 C47.4081,21.34 47.3091,20.978 47.1961,20.61 C47.1231,20.381 47.0631,20.148 46.9991,19.915 C47.3281,20.207 47.6261,20.548 47.9281,20.871 C48.1971,21.157 48.4491,21.462 48.6991,21.767 C49.0601,22.248 49.4161,22.738 49.7321,23.256 C50.0701,23.806 50.3941,24.366 50.7191,24.931 C51.0231,25.467 51.3281,26.013 51.6271,26.555 C51.9131,27.061 52.1681,27.598 52.4351,28.12 C52.6271,28.572 52.8191,29.024 53.0111,29.472 C53.2081,29.934 53.3871,30.403 53.5711,30.871 C53.7221,31.251 53.8741,31.63 54.0161,32.015 C54.1431,32.355 54.2741,32.7 54.4001,33.041 C54.4631,33.204 54.5311,33.366 54.5841,33.529 C55.4131,36.164 56.2651,38.797 56.9491,41.481 C57.6381,44.201 58.2861,46.933 58.9471,49.665 C59.3011,51.132 59.6541,52.6 60.0031,54.068 C60.3071,55.352 60.6441,56.629 60.9811,57.901 L60.9811,57.901 Z M48.3091,26.32 C48.5691,26.994 48.8381,27.662 49.1321,28.319 C49.5151,29.208 49.9211,30.086 50.3371,30.963 C50.5431,31.405 50.7541,31.841 50.9741,32.277 C51.1921,32.709 51.3971,33.15 51.5961,33.592 C52.4251,35.546 53.1811,37.535 53.8711,39.548 C54.2481,40.635 54.5971,41.724 54.9881,42.801 C55.1671,43.284 55.3231,43.774 55.4931,44.259 C55.6841,44.802 55.8741,45.341 56.0601,45.885 C56.2641,46.493 56.4521,47.102 56.6601,47.706 C56.8771,48.323 57.0991,48.935 57.3071,49.553 C57.7221,50.765 58.1411,51.97 58.5091,53.195 C58.9041,54.503 59.2811,55.818 59.6761,57.127 C60.0651,58.42 60.4511,59.724 60.9191,60.987 C61.0461,61.323 61.1671,61.659 61.3081,61.988 C61.4371,62.283 61.5621,62.578 61.6911,62.873 C61.9921,63.551 62.2541,64.241 62.5221,64.932 C63.0111,66.214 63.5041,67.491 63.9971,68.773 C64.3041,69.572 64.6141,70.371 64.9211,71.17 C65.0211,71.507 65.1241,71.842 65.2261,72.179 C64.6551,71.181 64.0811,70.188 63.5401,69.17 C62.8891,67.955 62.2411,66.733 61.5431,65.55 C60.8451,64.377 60.1521,63.199 59.4591,62.021 C59.1301,61.461 58.8101,60.891 58.5091,60.314 C58.2351,59.79 57.9961,59.247 57.7531,58.706 C57.7561,58.712 57.7591,58.719 57.7631,58.725 C57.0431,56.982 56.3431,55.224 55.6381,53.475 C54.6651,51.057 53.7261,48.616 52.8711,46.15 C52.4241,44.86 52.0901,43.533 51.7561,42.205 C51.5951,41.574 51.4721,40.93 51.3571,40.291 C51.2431,39.636 51.1141,38.982 50.9991,38.323 C51.0121,38.403 51.0241,38.478 51.0371,38.558 C50.8641,37.488 50.6671,36.424 50.4381,35.368 C50.1591,34.107 49.8231,32.851 49.4921,31.604 C49.1501,30.337 48.8131,29.06 48.5891,27.761 C48.5071,27.278 48.3991,26.802 48.3091,26.32 L48.3091,26.32 Z M65.2781,81.828 C64.3721,81.329 63.4691,80.828 62.5621,80.329 C61.5611,79.777 60.5641,79.22 59.5591,78.679 C58.1381,77.911 56.7161,77.144 55.2951,76.377 C54.1201,75.745 52.9551,75.097 51.7841,74.46 C51.3341,74.216 50.8981,73.946 50.4621,73.686 C50.0361,73.436 49.6141,73.185 49.1931,72.934 C49.0381,72.843 48.8791,72.763 48.7331,72.661 C48.0671,72.219 47.4011,71.772 46.7361,71.324 C46.2741,71.01 45.8161,70.681 45.3591,70.357 C44.8631,70.01 44.3721,69.663 43.8851,69.31 C43.3061,68.898 42.7351,68.469 42.1521,68.067 C41.5291,67.638 40.9021,67.203 40.2791,66.773 C40.0371,66.607 39.7891,66.451 39.5411,66.291 C39.2401,66.092 38.9351,65.895 38.6331,65.697 C37.5511,64.994 36.4411,64.317 35.3001,63.714 C35.0201,63.57 34.7401,63.421 34.4601,63.278 C34.1991,63.148 33.9341,63.023 33.6781,62.889 C33.0641,62.559 32.4501,62.22 31.8401,61.88 C30.7221,61.25 29.6311,60.577 28.5311,59.916 C27.9691,59.573 27.4241,59.189 26.8751,58.82 C26.3601,58.474 25.8501,58.123 25.3341,57.782 C24.2271,57.05 23.1061,56.349 21.9811,55.648 C21.4721,55.333 20.9541,55.023 20.4391,54.702 C19.9351,54.386 19.4391,54.049 18.9531,53.707 C18.0041,53.04 17.0421,52.405 16.0631,51.795 C15.5491,51.475 15.0441,51.149 14.5251,50.839 C14.3691,50.743 14.2111,50.653 14.0531,50.562 C14.8361,50.741 15.6211,50.918 16.4031,51.11 C17.7411,51.443 19.0761,51.782 20.4141,52.125 C21.6391,52.435 22.8631,52.76 24.0801,53.111 C24.6301,53.273 25.1851,53.424 25.7281,53.617 C26.3841,53.851 27.0441,54.085 27.7011,54.318 C28.2421,54.552 28.7871,54.782 29.3281,55.017 C29.8001,55.219 30.2541,55.447 30.7171,55.675 C31.6481,56.136 32.5581,56.648 33.4771,57.149 C34.6661,57.8 35.8471,58.462 37.0231,59.139 C38.1811,59.802 39.3021,60.528 40.4361,61.229 C41.5711,61.928 42.6621,62.707 43.7651,63.455 C44.7991,64.157 45.8181,64.884 46.8351,65.612 C46.8271,65.606 46.8191,65.599 46.8101,65.593 C46.8231,65.603 46.8361,65.612 46.8491,65.622 C46.8831,65.646 46.9171,65.67 46.9511,65.695 C46.9321,65.682 46.9131,65.669 46.8941,65.655 C48.3421,66.731 49.7911,67.808 51.2391,68.88 C51.5261,69.094 51.8001,69.324 52.0791,69.548 C52.5281,69.903 52.9771,70.258 53.4261,70.618 C54.0761,71.132 54.6801,71.715 55.2971,72.267 C57.1941,73.963 58.9821,75.798 60.8381,77.538 C61.8501,78.488 62.8701,79.428 63.8541,80.411 C64.3301,80.881 64.8041,81.355 65.2781,81.828 L65.2781,81.828 Z M11.2521,49.914 C11.3201,49.925 11.3871,49.941 11.4551,49.956 C11.4971,49.981 11.5401,50.002 11.5821,50.028 C11.7371,50.119 11.8961,50.205 12.0521,50.301 C12.2021,50.387 12.3481,50.484 12.4971,50.565 C12.8171,50.752 13.1411,50.923 13.4601,51.105 C13.9691,51.4 14.4731,51.696 14.9671,52.013 C15.4771,52.344 15.9961,52.654 16.5011,52.99 C16.9621,53.299 17.4371,53.592 17.9001,53.911 C18.3861,54.248 18.8721,54.591 19.3631,54.923 C19.8491,55.245 20.3391,55.547 20.8331,55.854 C21.3961,56.202 21.9541,56.555 22.5121,56.903 C23.6131,57.59 24.7001,58.298 25.7741,59.027 C26.3241,59.406 26.8781,59.78 27.4361,60.153 C27.9911,60.526 28.5581,60.874 29.1251,61.222 C29.6341,61.532 30.1391,61.854 30.6471,62.149 C31.2281,62.485 31.8051,62.833 32.3901,63.153 C32.7091,63.325 33.0281,63.502 33.3431,63.673 C33.5941,63.809 33.8501,63.928 34.1011,64.059 C34.6951,64.374 35.2851,64.7 35.8711,65.042 C37.0141,65.715 38.1171,66.458 39.2251,67.2 C40.2841,67.905 41.3211,68.641 42.3491,69.394 C43.5181,70.253 44.6911,71.102 45.8691,71.946 C46.0301,72.067 46.2001,72.177 46.3651,72.288 C46.7441,72.546 47.1181,72.805 47.4971,73.059 C47.7601,73.244 48.0271,73.424 48.2901,73.604 C48.4601,73.719 48.6391,73.814 48.8131,73.914 C49.5401,74.352 50.2711,74.79 50.9981,75.228 C51.4591,75.507 51.9371,75.749 52.4061,76.006 C53.5041,76.608 54.5971,77.214 55.6991,77.811 C56.9181,78.47 58.1401,79.119 59.3541,79.788 C60.5841,80.467 61.8121,81.145 63.0411,81.823 C61.9461,81.39 60.8531,80.948 59.7571,80.509 C57.3411,79.543 54.8891,78.669 52.4471,77.778 C51.6251,77.442 50.8001,77.115 49.9871,76.758 C48.9761,76.313 47.9681,75.862 46.9701,75.386 C46.1411,74.989 45.3151,74.578 44.5251,74.093 C43.7281,73.609 42.9531,73.098 42.1911,72.562 C41.6961,72.193 41.2011,71.825 40.6991,71.47 C40.4261,71.275 40.1621,71.06 39.8811,70.886 C39.5761,70.703 39.2701,70.516 38.9651,70.328 C37.8641,69.651 36.7421,69.022 35.6321,68.36 C33.3261,66.978 31.0411,65.559 28.7261,64.187 C26.4831,62.856 24.3381,61.362 22.2111,59.837 C22.2651,59.879 22.3231,59.92 22.3771,59.962 C21.3341,59.191 20.2871,58.415 19.2441,57.643 C18.2991,56.941 17.3851,56.202 16.5261,55.393 C16.0841,54.977 15.6561,54.549 15.2191,54.133 C14.7871,53.721 14.3501,53.315 13.9171,52.898 C13.4851,52.486 13.0481,52.08 12.6431,51.636 C12.3131,51.273 11.9981,50.892 11.6851,50.509 C11.5361,50.316 11.3901,50.118 11.2521,49.914 L11.2521,49.914 Z M34.0811,39.124 C34.0771,39.12 34.0731,39.116 34.0691,39.112 C33.8291,38.876 33.5881,38.639 33.3481,38.402 C32.4981,37.264 31.6601,36.117 30.8291,34.965 C30.4641,34.453 30.0671,33.973 29.6661,33.499 C29.2491,33 28.8321,32.502 28.4161,32.003 C28.2131,31.758 27.9951,31.515 27.8101,31.249 C27.6251,30.993 27.4451,30.731 27.2691,30.47 C26.9071,29.922 26.5551,29.369 26.1981,28.816 C25.5031,27.729 24.8001,26.652 24.1151,25.565 C23.3841,24.399 22.6221,23.256 21.8861,22.096 C21.5491,21.562 21.2021,21.028 20.8601,20.5 C20.5031,19.946 20.1371,19.404 19.7891,18.845 C19.0591,17.68 18.3321,16.514 17.6351,15.331 C17.3111,14.786 17.0111,14.234 16.6971,13.689 C16.3671,13.104 16.0321,12.524 15.7031,11.939 C15.3731,11.364 15.0531,10.783 14.7281,10.208 C14.4191,9.662 14.1011,9.122 13.7961,8.571 C13.2611,7.574 12.7691,6.552 12.3251,5.507 C12.0911,4.961 11.8621,4.415 11.6571,3.857 C11.5151,3.466 11.3831,3.072 11.2631,2.673 C11.3061,2.713 11.3481,2.754 11.3891,2.795 C11.8741,3.33 12.3511,3.864 12.8281,4.398 C13.2241,4.843 13.6151,5.297 14.0191,5.731 C14.9201,6.694 15.8331,7.641 16.7431,8.593 C16.8741,8.749 17.0081,8.9 17.1381,9.052 C17.9991,10.047 18.8431,11.065 19.6591,12.103 C20.4501,13.113 21.1261,14.222 21.8111,15.315 C22.5321,16.46 23.2801,17.59 24.0231,18.724 C24.7121,19.775 25.3531,20.853 25.9791,21.947 C26.2591,22.478 26.5351,23.01 26.8051,23.542 C27.0601,24.041 27.2891,24.557 27.5111,25.073 C27.9821,26.139 28.4211,27.217 28.8961,28.283 C29.4091,29.433 30.0371,30.519 30.6001,31.64 C31.1731,32.78 31.6961,33.954 32.2601,35.1 C32.5521,35.693 32.8351,36.296 33.1051,36.905 C33.3531,37.48 33.6211,38.044 33.8701,38.619 C33.9431,38.786 34.0121,38.955 34.0811,39.124 L34.0811,39.124 Z M11.8861,7.051 C12.1281,7.581 12.3801,8.106 12.6511,8.624 C12.9571,9.221 13.2871,9.795 13.6211,10.375 C14.2751,11.525 14.9161,12.687 15.5751,13.837 C16.2441,14.991 16.8931,16.152 17.5941,17.284 C17.9571,17.867 18.3251,18.45 18.6921,19.032 C18.8741,19.329 19.0651,19.62 19.2511,19.916 C19.3971,20.149 19.5571,20.366 19.7081,20.594 C20.4611,21.723 21.1951,22.868 21.9531,23.991 C22.6601,25.037 23.3401,26.105 24.0421,27.156 C24.8051,28.299 25.5631,29.448 26.3221,30.602 C26.6541,31.106 26.9901,31.609 27.3721,32.075 C27.7741,32.56 28.1851,33.039 28.5921,33.523 C28.8781,33.859 29.1701,34.194 29.4531,34.539 C28.9161,34.027 28.3671,33.529 27.8471,32.999 C27.1181,32.22 26.4711,31.349 25.8341,30.481 C25.5151,30.042 25.1811,29.604 24.8931,29.143 C24.6011,28.661 24.3081,28.185 24.0161,27.709 C23.3291,26.581 22.6651,25.441 21.9241,24.357 C21.5591,23.83 21.1471,23.341 20.7541,22.835 C20.3801,22.349 20.0021,21.874 19.6201,21.393 C19.2471,20.927 18.8701,20.466 18.5101,19.984 C18.1111,19.439 17.7061,18.889 17.3261,18.327 C16.6361,17.31 15.9901,16.261 15.3831,15.187 C14.9051,14.298 14.4771,13.377 14.0181,12.472 C13.5721,11.591 13.1221,10.715 12.6681,9.845 C12.4691,9.454 12.2741,9.057 12.0881,8.66 C11.9021,8.248 11.7071,7.836 11.5671,7.405 C11.4231,6.964 11.2841,6.524 11.1341,6.084 C10.9911,5.651 10.8601,5.213 10.7471,4.773 C10.6901,4.538 10.6391,4.299 10.5931,4.06 C10.9901,5.074 11.4311,6.07 11.8861,7.051 L11.8861,7.051 Z M8.4281,29.19 C8.2491,29.147 8.0711,29.105 7.8941,29.063 C7.6311,28.993 7.3721,28.909 7.1141,28.83 C6.1761,28.538 5.2271,28.28 4.3011,27.948 C4.3301,27.96 4.3601,27.971 4.3921,27.984 C4.3541,27.969 4.3161,27.955 4.2791,27.94 C4.2551,27.932 4.2321,27.924 4.2091,27.915 C4.2281,27.922 4.2471,27.929 4.2671,27.936 C4.0671,27.859 3.8661,27.785 3.6701,27.697 C3.4341,27.591 3.2101,27.461 2.9911,27.32 C2.8391,27.2 2.6931,27.075 2.5481,26.946 C2.4151,26.826 2.2971,26.69 2.1821,26.549 C2.0651,26.39 1.9681,26.224 1.8801,26.047 C1.8091,25.868 1.7571,25.693 1.7131,25.504 C1.7031,25.391 1.6991,25.28 1.7011,25.167 C1.7091,25.133 1.7161,25.1 1.7231,25.066 C1.7301,25.05 1.7381,25.033 1.7461,25.017 C1.7631,25.005 1.7791,24.994 1.7961,24.982 C1.8641,24.954 1.9331,24.929 2.0041,24.909 C2.1361,24.892 2.2631,24.889 2.3971,24.89 C2.7891,24.946 3.1691,25.044 3.5501,25.168 C3.8851,25.31 4.2081,25.473 4.5221,25.657 C4.8511,25.854 5.1641,26.075 5.4771,26.297 C6.1271,26.785 6.7501,27.293 7.3101,27.892 C7.5771,28.178 7.8161,28.496 8.0741,28.793 C8.1921,28.926 8.3101,29.058 8.4281,29.19 L8.4281,29.19 Z M1.6511,25.261 C1.6641,25.215 1.6801,25.17 1.6971,25.127 L1.6971,25.129 C1.6811,25.173 1.6661,25.218 1.6511,25.261 L1.6511,25.261 Z M64.3781,161.611 C64.6841,162.203 65.0181,162.782 65.3441,163.368 C65.9481,164.46 66.6001,165.536 67.2691,166.584 C68.0841,167.855 68.9041,169.126 69.7241,170.397 C70.3871,171.416 71.0651,172.428 71.7051,173.463 C72.1081,174.114 72.5261,174.759 72.9151,175.421 C73.3051,176.083 73.6951,176.745 74.0891,177.407 C74.7221,178.483 75.3591,179.564 76.0381,180.611 C76.3041,181.028 76.5761,181.451 76.8481,181.873 C76.9431,182.018 77.0341,182.159 77.1381,182.299 C77.5871,182.906 78.0411,183.519 78.4961,184.127 C78.7251,184.435 78.9821,184.716 79.2291,185.009 C79.4931,185.325 79.7601,185.647 80.0281,185.963 C80.4591,186.476 80.9181,186.972 81.3641,187.473 C83.0851,189.414 84.8381,191.332 86.5231,193.31 C88.4411,195.562 90.3491,197.823 92.2531,200.086 C92.3061,200.148 92.3891,200.179 92.4631,200.221 C92.4351,200.423 92.4131,200.627 92.3871,200.83 C92.3211,201.365 92.2611,201.899 92.1911,202.429 C91.9331,204.523 91.6711,206.616 91.3851,208.706 C91.2811,209.481 91.1781,210.255 91.0741,211.025 C91.0371,211.295 91.0051,211.57 90.9621,211.835 C90.7501,213.118 90.5421,214.394 90.3301,215.671 C90.2031,216.447 90.0801,217.223 89.9251,217.991 C89.6381,219.424 89.3461,220.863 89.0591,222.296 C88.9191,222.992 88.7551,223.685 88.5921,224.378 C88.2491,225.84 87.9061,227.297 87.5631,228.754 C87.4211,229.361 87.2601,229.958 87.1001,230.557 C86.9451,229.346 86.7871,228.135 86.6241,226.922 C86.5581,226.436 86.4781,225.951 86.4031,225.466 C86.3151,224.89 86.2411,224.304 86.1391,223.73 C85.7491,221.542 85.3731,219.353 84.8471,217.199 C84.6731,216.482 84.4951,215.771 84.3021,215.061 C84.1211,214.391 83.9351,213.726 83.7481,213.055 C83.5621,212.385 83.3671,211.721 83.1621,211.057 C83.0601,210.74 82.9721,210.418 82.8661,210.101 C82.7381,209.74 82.6111,209.375 82.4881,209.014 C82.0681,207.798 81.6161,206.589 81.0701,205.437 C80.7921,204.843 80.5141,204.254 80.2181,203.672 C79.9121,203.086 79.5911,202.505 79.2761,201.929 C79.2911,201.955 79.3061,201.98 79.3211,202.007 C78.7821,201.008 78.2761,199.991 77.7651,198.976 C77.8241,198.853 77.8491,198.71 77.8331,198.576 C77.8111,198.376 77.7171,198.25 77.5891,198.117 C77.4091,197.938 77.2301,197.756 77.0481,197.577 C76.7971,197.109 76.5321,196.648 76.2611,196.191 C75.8921,195.569 75.5411,194.929 75.1901,194.295 C75.2101,194.324 75.2261,194.358 75.2461,194.387 C75.2001,194.31 75.1601,194.231 75.1191,194.153 C74.8081,193.577 74.4841,193.007 74.1311,192.459 C73.7541,191.871 73.3071,191.304 72.7431,190.926 C72.5481,190.797 72.3371,190.72 72.1171,190.653 C71.9681,190.607 71.8301,190.585 71.6741,190.581 C71.6471,190.58 71.6211,190.58 71.5951,190.582 C71.3591,190.597 71.1601,190.71 70.9691,190.863 C70.8721,190.945 70.7971,191.066 70.7391,191.176 C70.6641,191.328 70.5951,191.484 70.5681,191.652 C70.5411,191.831 70.5161,192.02 70.5321,192.2 C70.5491,192.401 70.5751,192.586 70.6241,192.775 C70.7071,193.088 70.7991,193.4 70.9471,193.684 C71.0901,193.963 71.2381,194.247 71.4281,194.492 C71.5421,194.636 71.6571,194.785 71.7851,194.919 C71.8931,195.033 72.0011,195.142 72.1191,195.251 C72.3101,195.431 72.5211,195.599 72.7261,195.762 C73.1851,196.132 73.6711,196.46 74.1391,196.814 C74.6121,197.177 75.0721,197.562 75.5181,197.962 C75.9641,198.358 76.3781,198.791 76.7921,199.225 C76.8311,199.263 76.8781,199.293 76.9311,199.315 C77.2871,200.043 77.6441,200.772 78.0091,201.496 C78.5521,202.582 79.1371,203.641 79.6471,204.74 C79.9411,205.373 80.2251,206.011 80.5051,206.655 C80.6451,206.97 80.7571,207.301 80.8831,207.627 C81.0031,207.932 81.1091,208.243 81.2261,208.554 C81.4631,209.201 81.6771,209.859 81.9001,210.512 C81.9971,210.798 82.0791,211.091 82.1651,211.379 C82.2731,211.731 82.3811,212.083 82.4891,212.434 C82.5811,212.747 82.6641,213.065 82.7471,213.383 C82.8461,213.73 82.9441,214.077 83.0381,214.425 C83.2131,215.065 83.3791,215.707 83.5501,216.342 C83.5391,216.293 83.5281,216.248 83.5161,216.198 C83.7911,217.337 84.0661,218.472 84.2891,219.625 C84.4021,220.218 84.5281,220.817 84.6361,221.416 C84.7681,222.155 84.9001,222.9 85.0321,223.639 C85.1231,224.174 85.2011,224.714 85.2821,225.25 C85.3751,225.84 85.4731,226.425 85.5521,227.016 C85.7621,228.559 85.9711,230.102 86.1671,231.65 C86.1991,231.928 86.4211,232.124 86.6791,232.127 C86.5171,232.727 86.3521,233.325 86.1881,233.923 C85.8891,234.7 85.5941,235.478 85.2781,236.248 C85.1721,236.513 85.2221,236.812 85.3821,237.02 C85.3751,237.108 85.3721,237.197 85.3731,237.288 C85.3691,237.404 85.3771,237.515 85.3961,237.625 C85.4241,237.749 85.4521,237.863 85.4901,237.982 C85.5411,238.085 85.5971,238.188 85.6531,238.29 C85.7221,238.377 85.7961,238.458 85.8751,238.534 C85.9631,238.594 86.0501,238.649 86.1421,238.703 C86.2381,238.732 86.3381,238.762 86.4381,238.78 C86.6391,238.823 86.8921,238.751 87.0841,238.688 C87.1911,238.651 87.2941,238.614 87.3961,238.567 C87.6991,238.416 87.9901,238.215 88.2111,237.943 C88.3791,237.731 88.5171,237.484 88.6111,237.226 C88.7061,236.982 88.7821,236.734 88.8581,236.482 C89.0461,235.818 89.1861,235.142 89.3121,234.467 C89.5451,233.214 89.6961,231.946 89.8861,230.691 C89.9801,230.068 90.0661,229.446 90.1661,228.829 C90.2621,228.231 90.3721,227.643 90.4691,227.046 C90.5301,226.67 90.5841,226.294 90.6431,225.919 C90.6971,225.838 90.7481,225.754 90.8011,225.658 C90.8631,225.543 90.9201,225.428 90.9771,225.308 C91.0781,225.084 91.1781,224.856 91.2791,224.632 C91.4791,224.179 91.6521,223.723 91.8241,223.263 C92.1381,222.429 92.5111,221.617 92.8831,220.815 C93.0671,220.409 93.2501,220.002 93.4381,219.596 C93.6271,219.185 93.7911,218.765 93.9791,218.354 C94.4061,217.406 94.8561,216.467 95.3391,215.55 C95.4301,215.389 95.5301,215.235 95.6221,215.074 C96.0781,214.694 96.5411,214.322 97.0011,213.957 C97.3701,213.666 97.7521,213.398 98.1311,213.127 C99.2561,212.311 100.4111,211.544 101.5711,210.782 C102.0751,210.447 102.5731,210.096 103.0771,209.756 C103.6631,209.354 104.2491,208.953 104.8211,208.527 C105.8811,207.741 106.9401,206.94 108.0191,206.178 C108.6151,205.761 109.2101,205.344 109.8111,204.941 C110.3571,204.577 110.9041,204.213 111.4471,203.855 C111.4561,203.849 111.4651,203.844 111.4751,203.838 C112.6601,203.11 113.8551,202.402 115.0701,201.722 C115.3251,201.574 115.5901,201.436 115.8511,201.303 C116.1251,201.169 116.3941,201.025 116.6731,200.897 C117.2601,200.631 117.8571,200.386 118.4591,200.149 C119.0381,199.92 119.6281,199.736 120.2121,199.537 C120.8061,199.332 121.4061,199.147 121.9991,198.941 C122.5601,198.749 123.1271,198.565 123.6821,198.353 C124.2131,198.147 124.7481,197.938 125.2881,197.764 C125.7001,197.651 126.1171,197.572 126.5351,197.502 C126.9871,197.428 127.4391,197.378 127.8861,197.284 C128.3661,197.187 128.8341,197.046 129.3021,196.904 C129.7331,196.771 130.1471,196.567 130.5261,196.315 C130.6871,196.214 130.8481,196.077 130.9601,195.914 C131.0771,195.744 131.2021,195.539 131.2271,195.325 C131.2521,195.111 131.2581,194.874 131.1611,194.683 C131.0991,194.565 131.0381,194.453 130.9581,194.342 C130.8991,194.275 130.8301,194.209 130.7621,194.148 C130.6301,194.06 130.5091,193.987 130.3601,193.926 C130.2551,193.898 130.1441,193.864 130.0391,193.835 C129.8151,193.794 129.6061,193.773 129.3781,193.757 C129.2701,193.751 129.1621,193.752 129.0541,193.758 C128.7931,193.775 128.5351,193.827 128.2801,193.893 C127.8521,194.002 127.4421,194.169 127.0471,194.372 C126.6601,194.574 126.2921,194.807 125.9281,195.045 C125.9111,195.057 125.8931,195.067 125.8751,195.079 L125.8741,195.08 L125.8751,195.079 L125.8741,195.08 C125.2031,195.501 124.5331,195.922 123.8711,196.355 C123.8841,196.346 123.8961,196.337 123.9101,196.327 C123.6641,196.485 123.4091,196.622 123.1591,196.78 C122.9181,196.932 122.6731,197.084 122.4331,197.241 C122.4541,197.226 122.4751,197.212 122.4961,197.198 C122.4151,197.248 122.3331,197.295 122.2521,197.338 C122.1031,197.424 121.9841,197.528 121.9191,197.693 C121.8921,197.759 121.8761,197.828 121.8701,197.897 C120.7731,198.248 119.6721,198.595 118.5861,198.984 C117.9641,199.207 117.3531,199.453 116.7421,199.705 C116.1831,199.938 115.6441,200.22 115.1051,200.502 C114.5521,200.791 114.0101,201.098 113.4771,201.416 C112.8981,201.756 112.3181,202.091 111.7491,202.441 C111.4341,202.628 111.1191,202.815 110.8091,203.018 C110.5041,203.219 110.1991,203.42 109.8941,203.622 C109.4041,203.947 108.9091,204.267 108.4301,204.606 C107.8621,205.006 107.2941,205.397 106.7361,205.806 C106.1561,206.232 105.5751,206.659 104.9941,207.085 C104.4141,207.522 103.8281,207.949 103.2381,208.371 C102.9381,208.587 102.6281,208.789 102.3241,208.996 C102.0741,209.164 101.8291,209.331 101.5801,209.503 C100.9751,209.912 100.3651,210.315 99.7551,210.718 C99.5241,210.869 99.2971,211.025 99.0711,211.181 C98.7801,211.382 98.4791,211.573 98.1941,211.778 C97.9031,211.989 97.6081,212.2 97.3171,212.411 C97.2851,212.435 97.2521,212.459 97.2191,212.482 C98.5461,210.306 99.8691,208.131 101.2401,205.992 C101.6241,205.396 102.0141,204.8 102.3851,204.195 C102.7241,203.638 103.0531,203.076 103.4021,202.528 C104.1211,201.38 104.8601,200.251 105.6191,199.131 C105.9821,198.597 106.3401,198.048 106.7141,197.524 C107.1141,196.958 107.5151,196.401 107.9101,195.831 C108.7281,194.651 109.5501,193.466 110.3771,192.291 C111.1101,191.244 111.8671,190.22 112.6591,189.224 C113.5131,188.148 114.3631,187.073 115.2621,186.04 C117.0821,183.941 118.9281,181.872 120.7291,179.76 C121.6001,178.739 122.4711,177.718 123.3271,176.683 C124.6271,175.098 125.9271,173.514 127.2121,171.915 C127.2671,171.847 127.3041,171.769 127.3251,171.686 C128.5211,171 129.7211,170.321 130.8971,169.596 C131.4111,169.28 131.9251,168.969 132.4291,168.633 C132.5631,168.544 132.7021,168.454 132.8351,168.364 C133.0111,168.242 133.1631,168.121 133.3181,167.969 C133.4051,167.878 133.4911,167.787 133.5731,167.69 C133.8131,167.402 134.0531,167.108 134.2931,166.82 C134.6731,166.356 135.0241,165.864 135.3661,165.367 C135.6801,164.907 135.9841,164.418 136.2011,163.898 C136.4221,163.363 136.6301,162.835 136.7261,162.263 C136.7811,161.946 136.8161,161.62 136.818413,161.297 C136.8211,160.852 136.8041,160.419 136.6981,159.991 C136.6481,159.792 136.5891,159.614 136.5111,159.432 C136.4551,159.314 136.3831,159.177 136.3041,159.081 C136.1301,158.87 135.9441,158.7 135.7111,158.564 C135.2571,158.304 134.7411,158.186 134.2241,158.219 C134.2071,158.221 134.1901,158.222 134.1731,158.223 C133.4981,158.277 132.8551,158.571 132.3331,159.034 C132.0721,159.268 131.8301,159.516 131.5991,159.773 C131.3621,160.031 131.1441,160.293 130.9421,160.579 C130.7531,160.843 130.5741,161.113 130.3941,161.382 C130.0261,161.931 129.7031,162.513 129.4171,163.112 C129.1491,163.666 128.9301,164.251 128.7051,164.826 C128.4801,165.401 128.2551,165.977 128.0261,166.547 C127.6001,167.597 127.1291,168.634 126.5951,169.633 C126.4721,169.847 126.3461,170.061 126.2091,170.262 C126.1511,170.346 126.0881,170.431 126.0301,170.521 C125.9711,170.606 125.9211,170.699 125.8731,170.793 C125.8601,170.812 125.8451,170.83 125.8291,170.847 C125.6411,171.087 125.6351,171.424 125.7581,171.689 C124.9591,172.675 124.1591,173.662 123.3551,174.645 C122.7161,175.423 122.0871,176.212 121.4391,176.976 C120.0641,178.59 118.6901,180.205 117.3101,181.805 C116.4301,182.826 115.5351,183.839 114.6541,184.861 C113.7651,185.898 112.9051,186.96 112.0651,188.039 C111.2241,189.109 110.4031,190.198 109.6251,191.319 C108.8751,192.402 108.1291,193.489 107.3821,194.573 C107.7201,193.397 108.0651,192.223 108.3941,191.042 C108.5821,190.378 108.7611,189.715 108.9731,189.06 C109.2021,188.353 109.4311,187.65 109.6611,186.943 C109.8651,186.324 110.0641,185.705 110.2491,185.077 C110.4251,184.469 110.5721,183.843 110.7191,183.227 C111.0011,182.037 111.2501,180.843 111.4841,179.641 C111.7251,178.395 111.8801,177.129 112.1191,175.878 C112.1581,175.76 112.2031,175.65 112.2581,175.536 C112.4531,175.205 112.6741,174.903 112.8951,174.588 C113.1021,174.292 113.2841,173.972 113.4561,173.648 C113.7401,173.124 113.9991,172.582 114.2061,172.018 C114.4241,171.413 114.6181,170.773 114.6881,170.132 C114.7371,169.664 114.7661,169.172 114.6731,168.713 C114.6381,168.544 114.6071,168.349 114.5391,168.187 C114.4921,168.048 114.4251,167.916 114.3541,167.789 C114.3291,167.74 114.2991,167.692 114.2731,167.643 C114.0721,167.342 113.8151,167.051 113.4971,166.895 C113.4051,166.84 113.3081,166.8 113.2081,166.782 C113.1121,166.742 113.0171,166.723 112.9171,166.73 C112.8721,166.726 112.8201,166.725 112.7671,166.729 C112.6651,166.735 112.5571,166.757 112.4751,166.799 C112.3491,166.867 112.2381,166.94 112.1231,167.023 C112.0551,167.099 111.9861,167.169 111.9181,167.244 C111.8921,167.291 111.8601,167.338 111.8331,167.386 C111.6861,167.623 111.6061,167.891 111.5361,168.158 C111.4941,168.307 111.4561,168.451 111.4201,168.6 C111.2801,169.18 111.2321,169.779 111.1451,170.371 C111.0921,170.723 111.0681,171.083 111.0291,171.44 C110.9971,171.724 110.9601,172.01 110.9431,172.294 C110.9081,172.887 110.8261,173.474 110.8011,174.066 C110.7851,174.38 110.7871,174.699 110.7941,175.017 C110.8021,175.339 110.8471,175.66 110.8641,175.982 C110.8771,176.224 111.1111,176.391 111.3231,176.357 C111.3511,176.353 111.3791,176.345 111.4061,176.334 C111.3911,176.434 111.3741,176.533 111.3571,176.633 C111.2791,177.083 111.2211,177.541 111.1471,177.99 C111.0791,178.439 110.9971,178.889 110.9091,179.335 C110.7371,180.179 110.5751,181.018 110.3791,181.855 C110.1761,182.714 109.9631,183.575 109.7381,184.431 C109.4421,185.462 109.0851,186.473 108.7391,187.488 C108.3721,188.563 108.0241,189.646 107.7051,190.743 C107.4281,191.695 107.1431,192.654 106.8661,193.606 C106.5781,194.592 106.2931,195.577 106.0071,196.561 C105.6611,197.058 105.3151,197.554 104.9721,198.056 C104.2361,199.129 103.5081,200.202 102.8011,201.298 C102.0541,202.463 101.3361,203.646 100.5791,204.802 C99.8491,205.91 99.1181,207.018 98.4021,208.13 C97.7081,209.2 97.0151,210.271 96.3351,211.351 C95.6511,212.44 94.9141,213.483 94.2641,214.591 C93.9081,215.2 93.5711,215.818 93.2641,216.45 C92.9771,217.034 92.6771,217.609 92.4061,218.203 C91.9331,219.229 91.4121,220.232 90.8801,221.221 C90.9161,221.158 90.9561,221.09 90.9921,221.027 C90.8761,221.234 90.7631,221.442 90.6491,221.65 C90.8141,220.85 90.9791,220.049 91.1421,219.252 C91.2981,218.484 91.4631,217.715 91.5901,216.944 C91.8351,215.508 92.0751,214.078 92.3191,212.648 C92.4551,211.831 92.5601,211.005 92.6771,210.184 C92.8371,209.032 93.0111,207.874 93.1621,206.717 C93.4521,204.48 93.7421,202.248 94.0331,200.011 C94.1761,198.926 94.2581,197.829 94.3691,196.741 C94.4791,195.648 94.5521,194.546 94.6381,193.449 C94.7911,191.464 94.8811,189.462 94.9721,187.47 C95.0371,185.993 95.0931,184.519 95.1511,183.044 C95.6511,181.961 96.1501,180.879 96.6221,179.789 C96.9101,179.113 97.2011,178.438 97.4931,177.762 C97.7111,177.258 97.9051,176.745 98.1131,176.231 C98.3511,175.64 98.5601,175.03 98.7891,174.429 C99.0171,173.824 99.2261,173.214 99.4741,172.617 C99.7391,171.988 99.9851,171.346 100.2691,170.726 C100.5541,170.091 100.8371,169.457 101.1311,168.821 C101.7481,167.478 102.3661,166.135 102.9881,164.791 C103.5531,163.567 104.0551,162.317 104.5911,161.08 C104.9051,160.347 105.2231,159.614 105.5411,158.877 C105.8071,158.263 106.1111,157.668 106.4011,157.068 C106.5381,156.781 106.6641,156.49 106.8101,156.208 C106.9341,155.978 107.0571,155.742 107.1811,155.506 C107.5391,154.842 107.8841,154.163 108.2471,153.503 C108.6421,152.785 109.0371,152.072 109.4261,151.36 C109.7061,150.857 109.9611,150.346 110.2221,149.828 C110.4461,149.375 110.6751,148.92 110.9041,148.46 C110.9751,148.32 111.0501,148.178 111.1151,148.028 C111.4731,147.206 111.8351,146.385 112.1921,145.564 C112.7291,144.346 113.1841,143.094 113.6731,141.855 C113.9491,141.145 114.2011,140.417 114.4631,139.697 C114.7001,139.055 114.8981,138.401 115.1011,137.746 C115.1851,137.478 115.2891,137.204 115.3531,136.926 C115.4361,136.598 115.5141,136.274 115.5921,135.946 C115.7511,135.284 115.9161,134.632 116.0621,133.97 C116.4071,132.422 116.7461,130.875 117.0851,129.322 C117.3691,128.04 117.6381,126.754 117.8781,125.461 C117.9961,124.812 118.1331,124.166 118.2271,123.518 C118.3511,122.667 118.4761,121.82 118.6001,120.968 C118.6301,120.769 118.6461,120.565 118.6671,120.362 C118.7151,119.889 118.7641,119.416 118.8081,118.943 C118.8671,118.379 118.9311,117.819 118.9621,117.256 C119.0371,115.836 119.1211,114.411 119.1661,112.988 C119.1981,112.057 119.2251,111.125 119.2561,110.193 C119.2771,109.621 119.2701,109.056 119.2721,108.484 C119.2761,107.959 119.2801,107.428 119.2841,106.898 C119.2841,106.67 119.2941,106.437 119.2861,106.205 C119.2681,105.468 119.2451,104.737 119.2261,104.001 C119.2141,103.537 119.1971,103.078 119.1841,102.614 C119.1841,102.478 119.1781,102.341 119.1681,102.206 C119.0921,101.311 119.0211,100.421 118.9451,99.527 C118.9001,98.974 118.8371,98.422 118.7691,97.871 C118.6871,97.204 118.6191,96.531 118.5281,95.865 C118.3051,94.338 118.0811,92.812 117.8441,91.286 C117.6311,89.916 117.3721,88.558 117.1081,87.2 C116.8561,85.923 116.5721,84.658 116.2641,83.395 C115.9151,81.937 115.5721,80.478 115.1481,79.04 C115.1091,78.913 115.0101,78.836 114.8981,78.791 C114.8991,78.613 114.8931,78.436 114.9021,78.259 C114.9221,77.904 114.5751,77.628 114.2681,77.648 C113.9961,77.666 113.8001,77.867 113.7251,78.124 C113.6981,78.153 113.6671,78.177 113.6461,78.213 C113.4891,78.397 113.4061,78.617 113.3131,78.837 C113.2061,79.112 113.0881,79.387 112.9951,79.671 C112.8201,80.208 112.7511,80.768 112.6441,81.321 C112.5771,81.674 112.5101,82.027 112.4431,82.385 C112.3951,82.646 112.3631,82.905 112.3161,83.166 C112.2021,83.785 112.0781,84.399 111.9541,85.013 C111.8181,85.669 111.6481,86.316 111.4931,86.968 C111.3281,87.636 111.1501,88.304 110.9761,88.972 C110.7971,89.641 110.6191,90.309 110.4551,90.981 C110.3031,91.607 110.1511,92.229 110.0041,92.855 C109.6971,94.148 109.4001,95.445 109.1221,96.746 C108.9861,97.402 108.8311,98.054 108.6751,98.705 C108.5191,99.357 108.3731,100.008 108.1941,100.651 C108.0101,101.305 107.8271,101.963 107.6331,102.618 C107.4561,103.21 107.2701,103.793 107.1181,104.394 C106.7701,105.74 106.4761,107.104 106.2141,108.469 C105.9701,109.784 105.7161,111.093 105.4581,112.409 C104.9061,115.228 104.3301,118.044 103.6961,120.849 C103.5501,121.5 103.4041,122.156 103.2681,122.812 C103.1341,123.422 103.0111,124.041 102.9061,124.659 C102.6751,126.079 102.4781,127.506 102.2811,128.934 C102.0991,130.274 101.9131,131.62 101.7171,132.962 C101.6191,133.64 101.5171,134.324 101.4191,135.002 C101.3141,135.721 101.2181,136.44 101.1021,137.16 C100.8671,138.585 100.6031,140.002 100.4201,141.438 C100.2461,142.834 100.1041,144.237 99.9581,145.641 C99.8231,146.974 99.6651,148.308 99.5071,149.637 C99.3481,150.971 99.2241,152.308 99.0651,153.637 C98.9811,154.309 98.9171,154.985 98.8191,155.653 C98.7251,156.312 98.6221,156.965 98.5181,157.618 C98.2751,159.094 98.0181,160.561 97.7561,162.033 C97.5261,163.341 97.2711,164.641 96.9931,165.938 C96.8481,166.614 96.7171,167.289 96.5581,167.961 C96.3701,168.747 96.1811,169.532 95.9931,170.317 C95.8171,171.046 95.6261,171.771 95.4451,172.495 C95.4141,172.621 95.3801,172.747 95.3491,172.874 C95.3331,171.345 95.2901,169.818 95.2041,168.291 C95.0781,166.075 94.9611,163.855 94.7881,161.643 C94.7101,160.586 94.6281,159.536 94.5221,158.486 C94.4151,157.407 94.3091,156.328 94.1921,155.244 C94.0731,154.099 93.9451,152.956 93.8121,151.812 C93.6861,150.724 93.5271,149.648 93.3721,148.566 C93.0881,146.548 92.7711,144.538 92.4021,142.535 C92.2891,141.911 92.1701,141.282 92.0571,140.657 C91.9801,140.253 91.8751,139.851 91.7841,139.447 C91.5571,138.446 91.3391,137.435 91.0981,136.435 C90.8621,135.441 90.6221,134.449 90.3861,133.456 C90.4861,133.303 90.5331,133.137 90.5421,132.947 C90.6831,129.249 90.8421,125.55 91.0431,121.849 C91.1181,120.424 91.1441,118.988 91.1761,117.561 C91.2091,116.179 91.2471,114.797 91.2811,113.416 C91.3101,112.049 91.3101,110.68 91.3541,109.313 C91.3921,107.921 91.4201,106.525 91.4671,105.127 C91.5101,103.75 91.5621,102.367 91.5621,100.988 C91.5671,99.613 91.5541,98.24 91.5161,96.868 C91.4371,93.877 91.3301,90.892 91.2261,87.903 C91.2021,87.252 91.1541,86.594 91.1201,85.944 C91.0871,85.34 91.0651,84.735 91.0181,84.131 C90.9431,83.252 90.8721,82.368 90.7951,81.483 C90.7431,80.83 90.6561,80.173 90.5841,79.521 C90.5061,78.824 90.3951,78.128 90.2931,77.433 C90.1931,76.803 90.1031,76.167 89.9711,75.544 C89.6691,74.072 89.3111,72.62 88.9491,71.163 C88.6381,69.94 88.3401,68.706 87.9551,67.513 C87.5461,66.231 87.1231,64.944 86.6501,63.691 C86.3661,62.942 86.0821,62.187 85.7931,61.438 C85.6991,61.191 85.5861,60.951 85.4821,60.705 C85.2941,60.262 85.1081,59.824 84.9151,59.382 C84.4171,58.207 83.8811,57.049 83.3211,55.902 C82.1051,53.404 80.9201,50.868 79.3621,48.588 C78.5851,47.456 77.8171,46.318 77.0091,45.213 C76.2451,44.171 75.4391,43.157 74.7351,42.065 C74.6071,41.87 74.3971,41.765 74.1861,41.778 C74.1841,41.778 74.1811,41.781 74.1791,41.781 C74.2031,41.698 74.2141,41.611 74.2041,41.523 C74.1771,41.293 74.1501,41.087 74.0291,40.893 C73.9181,40.713 73.7471,40.583 73.5471,40.54 C73.4951,40.528 73.4471,40.527 73.3991,40.527 C73.3221,40.24 73.0981,40.024 72.7981,40.044 C72.6321,40.054 72.4791,40.134 72.3701,40.263 C72.2701,40.38 72.1871,40.573 72.2081,40.733 C72.2631,41.125 72.3381,41.513 72.4061,41.902 C72.3771,42.017 72.3511,42.131 72.3221,42.246 C72.2161,42.688 72.1621,43.126 72.1171,43.578 C72.0621,44.137 72.0021,44.697 71.9911,45.264 C71.9811,45.765 71.9721,46.266 71.9531,46.767 C71.9311,47.445 71.9041,48.125 71.9111,48.801 C71.9161,49.447 71.9501,50.092 71.9781,50.737 C72.0391,52.087 72.0991,53.432 72.1541,54.783 C72.2721,57.539 72.3761,60.296 72.5271,63.05 C72.6021,64.44 72.6691,65.835 72.8161,67.215 C72.9671,68.595 73.1521,69.973 73.4071,71.336 C73.5311,72.01 73.6371,72.685 73.7811,73.353 C73.9251,74.026 74.0731,74.693 74.2451,75.359 C74.4161,76.025 74.5981,76.686 74.7881,77.34 C74.9731,77.976 75.1721,78.605 75.3521,79.244 C75.7141,80.555 76.0991,81.854 76.4981,83.157 C76.8771,84.401 77.2551,85.65 77.6621,86.882 C77.8871,87.57 78.1161,88.257 78.3591,88.939 C78.6021,89.61 78.8511,90.282 79.1031,90.948 C79.5841,92.198 80.1341,93.416 80.6821,94.637 C80.8231,94.982 80.9631,95.328 81.1041,95.669 C81.2351,96.004 81.3471,96.351 81.4641,96.687 C81.6761,97.279 81.8641,97.879 82.0571,98.478 C82.2771,99.156 82.5011,99.829 82.7061,100.508 C82.9381,101.256 83.1561,102.005 83.3931,102.748 C83.6291,103.495 83.8701,104.243 84.1071,104.995 C84.3161,105.644 84.5531,106.285 84.7811,106.927 C85.0031,107.55 85.2071,108.178 85.4201,108.801 C85.5161,109.098 85.5991,109.401 85.6901,109.698 C85.7831,110.026 85.8991,110.347 85.9781,110.675 C86.1451,111.336 86.3211,111.992 86.4651,112.655 C86.6421,113.457 86.8181,114.254 86.9961,115.056 C87.2651,116.291 87.4651,117.544 87.6911,118.791 C87.8111,119.728 87.9271,120.666 88.0421,121.603 C88.0691,121.818 88.0821,122.035 88.0951,122.252 C88.1351,122.83 88.1761,123.413 88.2121,123.992 C88.2331,124.293 88.2521,124.596 88.2711,124.898 C88.2421,124.784 88.2131,124.67 88.1841,124.556 C88.0941,124.198 88.0101,123.835 87.9061,123.478 C87.5801,122.356 87.2581,121.235 86.9321,120.109 C86.7851,119.604 86.6381,119.093 86.4911,118.587 C86.4091,118.304 86.3041,118.028 86.2081,117.751 C85.7771,116.485 85.3461,115.225 84.9101,113.959 C84.8091,113.663 84.6801,113.378 84.5601,113.092 C84.2791,112.423 84.0031,111.749 83.7261,111.08 C83.3881,110.268 83.0501,109.451 82.6841,108.65 C82.1421,107.458 81.5941,106.265 81.0521,105.067 C80.2521,103.325 79.4571,101.578 78.6211,99.853 C77.5891,97.736 76.5391,95.631 75.4841,93.532 C75.0131,92.592 74.4921,91.675 73.9921,90.752 C73.9911,90.751 73.9921,90.749 73.9911,90.748 C73.9891,90.746 73.9881,90.744 73.9871,90.742 C73.9831,90.736 73.9801,90.73 73.9761,90.724 C73.5541,89.937 73.1311,89.156 72.7041,88.37 C72.3381,87.707 71.9771,87.043 71.6111,86.374 C71.5691,86.298 71.5241,86.225 71.4821,86.149 C71.3031,85.624 71.1271,85.096 70.9351,84.575 C70.6441,83.775 70.3501,82.976 70.0591,82.176 C69.9161,81.791 69.7601,81.417 69.5951,81.044 C69.5831,81.018 69.5721,80.991 69.5601,80.965 C69.0681,79.559 68.5831,78.149 68.0981,76.739 C67.6511,75.449 67.2471,74.141 66.8291,72.844 C66.4581,71.696 66.1171,70.536 65.7791,69.375 C65.3551,67.917 64.9311,66.459 64.4831,65.012 C64.1061,63.794 63.7191,62.58 63.3561,61.356 C63.1221,60.567 62.8851,59.779 62.6511,58.991 C62.4451,58.297 62.2761,57.58 62.0891,56.879 C61.3661,54.157 60.7371,51.414 60.0751,48.677 C59.7891,47.488 59.4981,46.304 59.2121,45.115 C58.8461,43.577 58.4671,42.045 58.0781,40.52 C57.9331,39.943 57.7601,39.373 57.5961,38.802 C57.4221,38.192 57.2521,37.576 57.0631,36.972 C56.8371,36.244 56.6161,35.515 56.3891,34.787 C56.2601,34.386 56.1361,33.985 56.0081,33.584 C55.9381,33.361 55.8721,33.143 55.7931,32.926 C55.2981,31.599 54.8121,30.266 54.2621,28.962 C53.9801,28.293 53.7131,27.613 53.3811,26.962 C53.0491,26.317 52.7171,25.671 52.3661,25.037 C52.0361,24.442 51.7141,23.831 51.3611,23.242 C51.0221,22.673 50.6741,22.114 50.3031,21.562 C49.9371,21.025 49.5341,20.515 49.1091,20.032 C48.6391,19.492 48.1261,18.974 47.4811,18.677 C47.3771,18.629 47.2681,18.608 47.1621,18.615 C47.0561,18.622 46.9541,18.657 46.8641,18.718 C46.8651,18.699 46.8741,18.685 46.8741,18.666 C46.8651,18.434 46.7381,18.194 46.5351,18.096 C46.4591,18.059 46.3911,18.062 46.3201,18.049 C46.2181,17.94 46.0861,17.87 45.9461,17.879 C45.8611,17.884 45.7761,17.914 45.7001,17.969 C45.5211,18.094 45.4421,18.331 45.4911,18.544 C45.4011,18.777 45.3761,19.01 45.3851,19.262 C45.4041,19.634 45.4321,20.002 45.4751,20.373 C45.5641,21.241 45.7281,22.089 45.9401,22.935 C46.3571,24.575 46.6381,26.25 46.9331,27.923 C46.9201,27.843 46.9081,27.763 46.8961,27.689 C47.0431,28.593 47.2051,29.492 47.4281,30.382 C47.6391,31.203 47.8541,32.023 48.0701,32.842 C48.2911,33.697 48.5181,34.551 48.7301,35.412 C48.9371,36.258 49.1021,37.116 49.2621,37.97 C49.3861,38.634 49.4971,39.299 49.6251,39.958 C49.7531,40.591 49.8531,41.231 50.0001,41.863 C50.1481,42.516 50.3191,43.162 50.4901,43.813 C50.6571,44.449 50.8231,45.085 51.0211,45.709 C51.4241,46.976 51.9161,48.212 52.3791,49.451 C52.8481,50.704 53.3401,51.951 53.8461,53.187 C54.3521,54.432 54.8771,55.671 55.3781,56.918 C55.8951,58.198 56.4081,59.479 57.0131,60.708 C57.5981,61.903 58.2941,63.031 58.9711,64.165 C59.6581,65.308 60.3641,66.444 61.0191,67.61 C61.7141,68.843 62.3811,70.089 63.0721,71.323 C63.4171,71.947 63.7721,72.561 64.1271,73.18 C64.4721,73.774 64.8021,74.375 65.1231,74.985 C65.7761,76.231 66.3921,77.496 67.0131,78.759 C67.2591,79.259 67.4821,79.77 67.7091,80.281 C67.7141,80.292 67.7191,80.303 67.7251,80.314 C67.6351,80.189 67.5461,80.063 67.4561,79.937 C66.9411,79.217 66.4261,78.492 65.9111,77.768 C64.5811,75.898 63.2551,74.023 61.9351,72.142 C61.3091,71.258 60.6791,70.374 60.0541,69.489 C59.8641,69.219 59.6781,68.942 59.4691,68.683 C59.0811,68.188 58.6881,67.693 58.2961,67.198 C57.6891,66.428 57.0821,65.664 56.4481,64.917 C55.8131,64.164 55.1741,63.407 54.5351,62.655 C53.8461,61.852 53.1681,61.041 52.4831,60.234 C52.4911,60.065 52.4391,59.895 52.3161,59.776 C51.9131,59.384 51.5071,58.996 51.1031,58.605 C50.7431,58.178 50.3781,57.755 50.0191,57.327 C48.6901,55.74 47.3571,54.164 46.0151,52.598 C44.7321,51.099 43.4211,49.622 42.1611,48.097 C40.8461,46.504 39.5351,44.9 38.1561,43.368 C37.5091,42.651 36.8641,41.937 36.1931,41.249 C36.1641,41.194 36.1531,41.127 36.1071,41.086 C36.0811,41.05 36.0571,41.013 36.0341,40.976 C35.9481,40.791 35.8791,40.599 35.7991,40.415 C35.7311,40.252 35.6641,40.09 35.5871,39.934 C35.4371,39.605 35.2781,39.276 35.1371,38.937 C34.9081,38.386 34.6651,37.84 34.4131,37.301 C34.1241,36.678 33.8541,36.048 33.5651,35.43 C33.2821,34.812 32.9751,34.21 32.6911,33.597 C32.4341,33.038 32.1761,32.478 31.9091,31.919 C31.6521,31.39 31.3901,30.856 31.1201,30.333 C30.8181,29.756 30.5171,29.184 30.2351,28.596 C29.9471,28.003 29.6831,27.394 29.4281,26.784 C29.1471,26.13 28.8671,25.476 28.5961,24.821 C28.3561,24.24 28.0981,23.666 27.8211,23.113 C27.6521,22.775 27.4831,22.437 27.3101,22.105 C27.1721,21.836 27.0341,21.562 26.8861,21.294 C26.2371,20.143 25.5591,19.004 24.8451,17.893 C24.4831,17.331 24.1251,16.767 23.7631,16.205 C23.3961,15.642 23.0391,15.074 22.6851,14.501 C22.0041,13.398 21.3281,12.289 20.5461,11.263 C19.7391,10.203 18.8951,9.171 18.0331,8.156 C17.2051,7.178 16.3041,6.271 15.4491,5.316 C14.5941,4.365 13.7661,3.388 12.9251,2.426 C12.5681,2.015 12.2161,1.598 11.8011,1.261 C11.7381,1.214 11.6791,1.163 11.6201,1.116 C11.5321,1.046 11.4451,0.986 11.3521,0.931 C11.3041,0.899 11.2561,0.867 11.2071,0.839 C11.0291,0.765 10.8701,0.694 10.6721,0.717 C10.5681,0.724 10.4701,0.746 10.3721,0.787 C10.3531,0.796 10.3351,0.805 10.3181,0.815 C10.3311,0.758 10.3461,0.701 10.3571,0.647 C10.4131,0.385 10.2051,0.131 9.9721,0.101 C9.9441,0.0960342546 9.9161,0.0960342546 9.8891,0.0960342546 C9.6801,0.11 9.4731,0.285 9.4521,0.518 C9.4321,0.747 9.4171,0.975 9.4301,1.202 C9.4431,1.418 9.4981,1.632 9.5351,1.847 C9.6211,2.356 9.6971,2.872 9.7821,3.382 C9.8681,3.882 9.9571,4.381 10.0751,4.874 C10.0901,4.942 10.1031,5.014 10.1231,5.081 C10.1331,5.135 10.1491,5.189 10.1651,5.242 C10.1931,5.366 10.2261,5.491 10.2591,5.61 C10.3411,5.898 10.4281,6.185 10.5191,6.472 C10.7121,7.066 10.8671,7.668 11.0881,8.25 C11.5241,9.389 12.0621,10.486 12.5961,11.573 C13.1751,12.753 13.7081,13.957 14.2931,15.132 C14.8621,16.283 15.5101,17.393 16.1991,18.465 C16.9081,19.572 17.6501,20.65 18.4511,21.68 C19.2131,22.672 19.9711,23.674 20.7191,24.677 C21.0921,25.169 21.4061,25.704 21.7291,26.229 C22.0721,26.788 22.3921,27.358 22.7261,27.923 C23.0651,28.502 23.4041,29.082 23.7481,29.656 C23.9301,29.958 24.1111,30.254 24.3071,30.54 C24.5071,30.83 24.7031,31.115 24.9031,31.4 C25.2881,31.941 25.6821,32.477 26.0951,33.002 C26.4881,33.506 26.9091,33.98 27.3561,34.431 C27.7991,34.877 28.2661,35.302 28.7181,35.743 C29.1361,36.155 29.5541,36.573 29.9721,36.981 C30.9081,37.893 31.8301,38.81 32.7661,39.717 C32.7361,39.962 32.8081,40.223 32.9901,40.381 C34.2051,41.46 35.3261,42.671 36.4141,43.894 C37.5561,45.175 38.6801,46.472 39.7721,47.801 C40.4901,48.673 41.2251,49.53 41.9531,50.393 C41.7001,50.195 41.4461,49.998 41.1941,49.801 C41.0041,49.651 40.8051,49.518 40.6101,49.384 C40.2351,49.12 39.8661,48.856 39.4911,48.592 C38.9951,48.24 38.4901,47.908 37.9841,47.572 C36.9351,46.877 35.8721,46.197 34.8231,45.497 C33.6961,44.746 32.5731,43.985 31.4501,43.223 C30.3311,42.46 29.2251,41.677 28.1321,40.878 C27.3951,40.328 26.6621,39.779 25.9111,39.255 C24.8991,38.537 23.8781,37.84 22.7991,37.237 C21.6531,36.604 20.4971,35.986 19.3431,35.383 C18.2611,34.816 17.1971,34.228 16.1591,33.578 C15.1901,32.969 14.2351,32.345 13.3051,31.674 C13.0201,31.467 12.7391,31.254 12.4551,31.047 C12.4881,31.07 12.5221,31.093 12.5571,31.117 C12.1661,30.823 11.7811,30.53 11.4141,30.215 C11.2631,30.088 11.1381,29.915 11.0141,29.761 C10.8741,29.585 10.7271,29.414 10.5831,29.243 C10.1861,28.737 9.7771,28.241 9.3611,27.75 C8.9891,27.309 8.6441,26.831 8.2311,26.433 C7.7941,26.012 7.3431,25.622 6.8611,25.263 C6.3451,24.877 5.8181,24.482 5.2571,24.169 C4.6711,23.843 4.0641,23.559 3.4231,23.378 C3.2601,23.333 3.1021,23.288 2.9391,23.248 C2.8491,23.228 2.7531,23.199 2.6581,23.19 C2.4561,23.164 2.2331,23.121 2.0271,23.134 C2.0191,23.135 2.0111,23.135 2.0021,23.136 C1.6201,23.176 1.2391,23.251 0.9011,23.455 C0.7621,23.54 0.5911,23.656 0.4921,23.789 C0.3741,23.938 0.2761,24.091 0.1871,24.258 C0.1411,24.393 0.0981,24.522 0.0511,24.656 C0.0231,24.799 0.0051,24.942 -2.69607944e-05,25.089 C-0.0049,25.317 0.0131,25.528 0.0541,25.752 C0.1011,25.987 0.1651,26.195 0.2501,26.417 C0.3291,26.624 0.4321,26.855 0.5481,27.04 C0.7851,27.414 1.0671,27.754 1.3871,28.057 C1.8291,28.468 2.3391,28.829 2.8841,29.072 C3.9871,29.562 5.1451,29.901 6.2911,30.262 C6.5981,30.354 6.9001,30.46 7.2061,30.546 C7.5031,30.633 7.8051,30.705 8.1061,30.782 C8.4021,30.859 8.6941,30.936 8.9911,31.013 C9.2971,31.094 9.6001,31.201 9.9141,31.262 C10.1861,31.318 10.4621,31.21 10.6361,30.995 C10.7551,31.063 10.8731,31.132 10.9871,31.208 C11.3371,31.438 11.6691,31.699 12.0151,31.945 C12.3691,32.189 12.7151,32.44 13.0701,32.695 C14.0391,33.386 15.0521,34.013 16.0661,34.635 C17.1471,35.308 18.2591,35.903 19.3801,36.493 C20.4571,37.065 21.5361,37.652 22.5961,38.266 C23.6911,38.908 24.7231,39.66 25.7511,40.412 C25.7171,40.384 25.6831,40.361 25.6481,40.333 C26.2331,40.771 26.8181,41.212 27.3991,41.66 C27.5011,41.738 27.6081,41.81 27.7101,41.887 C27.5131,41.801 27.3161,41.713 27.1151,41.636 C26.7641,41.507 26.4131,41.373 26.0621,41.244 C25.4861,41.023 24.9051,40.813 24.3241,40.613 C23.7101,40.4 23.0961,40.197 22.4781,40.009 C22.1521,39.914 21.8271,39.824 21.5061,39.739 C21.2381,39.665 20.9751,39.586 20.7071,39.517 C20.1481,39.381 19.5931,39.24 19.0211,39.141 C18.4491,39.036 17.8761,38.932 17.3051,38.837 C17.0091,38.791 16.7131,38.729 16.4221,38.677 C16.1171,38.626 15.8171,38.585 15.5131,38.538 C15.2221,38.496 14.9401,38.444 14.6551,38.397 C14.3401,38.341 14.0211,38.301 13.7061,38.245 C13.6861,38.242 13.6661,38.24 13.6461,38.242 C13.5071,38.251 13.3811,38.378 13.3621,38.525 C13.3351,38.704 13.4551,38.858 13.6171,38.888 C13.8931,38.936 14.1741,38.968 14.4511,39.016 C14.6941,39.056 14.9411,39.101 15.1851,39.15 C15.4621,39.209 15.7381,39.256 16.0111,39.319 C16.2351,39.371 16.4551,39.422 16.6751,39.479 C17.6621,39.723 18.6471,39.946 19.6251,40.215 C21.0281,40.64 22.4191,41.109 23.7941,41.623 C24.5811,41.915 25.3701,42.218 26.1581,42.526 C27.0181,42.855 27.8661,43.22 28.7041,43.595 C28.9781,43.719 29.3141,43.566 29.4311,43.271 C29.4461,43.232 29.4461,43.193 29.4541,43.154 C30.9551,44.23 32.4721,45.282 34.0011,46.313 C35.0211,47 36.0551,47.666 37.0811,48.348 C37.6101,48.708 38.1531,49.052 38.6741,49.422 C39.2701,49.846 39.8651,50.264 40.4561,50.682 C41.3011,51.343 42.1521,51.995 42.9701,52.693 C43.4831,53.125 43.9921,53.557 44.5011,53.989 C44.8731,54.303 45.2271,54.649 45.5851,54.975 C45.9381,55.298 46.2891,55.618 46.6411,55.938 C47.1281,56.513 47.6211,57.084 48.1041,57.663 C49.3141,59.106 50.5111,60.56 51.7341,61.991 C53.1511,63.647 54.5591,65.307 55.9621,66.973 C56.6481,67.846 57.3341,68.716 58.0211,69.59 C58.2151,69.835 58.3901,70.092 58.5701,70.343 C58.9901,70.932 59.4051,71.522 59.8211,72.112 C60.8961,73.634 61.9581,75.168 63.0341,76.685 C63.9061,77.915 64.7751,79.148 65.6441,80.381 C65.1421,79.875 64.6381,79.368 64.1321,78.862 C63.7391,78.473 63.3321,78.1 62.9291,77.722 C61.8581,76.71 60.7921,75.687 59.7351,74.658 C58.7821,73.734 57.8231,72.806 56.8701,71.882 C56.3831,71.413 55.8701,70.981 55.3701,70.529 C54.9771,70.175 54.5901,69.816 54.1751,69.489 C53.5201,68.965 52.8711,68.441 52.2121,67.918 C51.7181,67.52 51.2031,67.154 50.6961,66.773 C49.6471,65.986 48.6041,65.184 47.5471,64.408 C46.4661,63.619 45.3801,62.835 44.2861,62.072 C43.1911,61.309 42.1151,60.524 40.9901,59.814 C39.8301,59.085 38.6841,58.335 37.5121,57.637 C36.3401,56.945 35.1591,56.273 33.9821,55.596 C33.3961,55.26 32.8151,54.923 32.2341,54.587 C31.6681,54.265 31.0891,53.974 30.5141,53.667 C30.2821,53.545 30.0411,53.45 29.8101,53.344 C29.4151,53.162 29.0241,52.98 28.6341,52.798 C28.0751,52.541 27.4991,52.346 26.9271,52.125 C26.3651,51.903 25.8021,51.682 25.2221,51.497 C24.5371,51.273 23.8501,51.034 23.1561,50.827 C21.8051,50.423 20.4581,50.02 19.1081,49.622 C17.8581,49.253 16.6001,48.91 15.3411,48.571 C14.7621,48.417 14.1831,48.267 13.6001,48.112 C13.2651,48.028 12.9251,47.943 12.5911,47.859 C12.3511,47.799 12.1131,47.743 11.8741,47.698 C11.6911,47.667 11.5091,47.656 11.3281,47.668 C11.0841,47.683 10.8431,47.74 10.6101,47.845 C10.4391,47.924 10.3001,48.038 10.1821,48.18 C10.1461,48.15 10.1111,48.121 10.0811,48.087 C10.0371,48.02 9.9801,47.966 9.9121,47.927 C9.8341,47.882 9.7531,47.867 9.6641,47.873 C9.5361,47.881 9.4151,47.944 9.3291,48.046 C9.2431,48.148 9.1961,48.282 9.2011,48.418 C9.2061,48.564 9.2671,48.671 9.3561,48.772 C9.4701,48.906 9.6261,49.032 9.7851,49.098 C9.8471,49.123 9.9071,49.149 9.9681,49.174 C9.9691,49.18 9.9681,49.185 9.9701,49.19 C9.9701,49.191 9.9711,49.192 9.9711,49.193 C9.9161,49.261 9.8731,49.338 9.8611,49.436 C9.8341,49.614 9.8391,49.745 9.9071,49.902 C9.9481,50.006 9.9891,50.069 10.0491,50.156 C10.1341,50.277 10.2191,50.398 10.3091,50.518 C10.4881,50.759 10.6721,50.995 10.8611,51.226 C11.0501,51.456 11.2561,51.665 11.4401,51.891 C11.6241,52.116 11.8081,52.342 11.9961,52.562 C12.4171,53.061 12.8751,53.531 13.3151,54.013 C13.7451,54.481 14.1791,54.933 14.6081,55.4 C15.0471,55.867 15.4771,56.345 15.9301,56.791 C16.3631,57.217 16.8091,57.628 17.2641,58.023 C18.2241,58.851 19.2151,59.646 20.2111,60.425 C22.3531,62.111 24.5371,63.754 26.8181,65.219 C29.0801,66.675 31.3381,68.142 33.6081,69.582 C34.7731,70.32 35.9461,71.028 37.1281,71.74 C37.6901,72.078 38.2391,72.442 38.7921,72.795 C39.2271,73.07 39.6391,73.393 40.0531,73.705 C40.0411,73.697 40.0301,73.689 40.0191,73.681 C40.7261,74.227 41.4301,74.788 42.1641,75.301 C42.7281,75.699 43.2971,76.082 43.8701,76.46 C44.4341,76.828 45.0411,77.127 45.6311,77.438 C46.1431,77.708 46.6601,77.978 47.1811,78.222 C47.7931,78.506 48.4011,78.805 49.0221,79.068 C49.7441,79.376 50.4611,79.678 51.1781,79.985 C51.7991,80.249 52.4371,80.47 53.0671,80.708 C54.2881,81.169 55.5171,81.621 56.7371,82.073 C56.7281,82.069 56.7191,82.065 56.7101,82.062 C58.3761,82.71 60.0361,83.376 61.6991,84.037 C62.5501,84.381 63.4051,84.71 64.2611,85.044 C64.7801,85.249 65.3051,85.457 65.8241,85.666 C66.3481,85.88 66.8821,86.088 67.3841,86.354 C67.8171,86.583 68.2241,86.847 68.6211,87.133 C68.6891,87.189 68.7581,87.248 68.8271,87.307 C69.0811,87.518 69.3561,87.647 69.6911,87.625 C69.8511,87.615 70.0071,87.569 70.1501,87.495 C70.2511,87.63 70.3551,87.764 70.4551,87.899 C71.4151,89.668 72.3731,91.439 73.3221,93.211 C74.2241,94.912 75.0891,96.634 75.9271,98.369 C76.4861,99.516 77.0401,100.667 77.6001,101.814 C78.0731,102.794 78.5081,103.801 78.9621,104.793 C79.7991,106.617 80.6311,108.447 81.4591,110.278 C81.8441,111.214 82.2291,112.15 82.6181,113.086 C82.8061,113.539 82.9931,113.997 83.1811,114.45 C83.2741,114.676 83.3411,114.919 83.4201,115.151 C83.8411,116.383 84.2661,117.619 84.6861,118.85 C84.9321,119.582 85.1311,120.332 85.3481,121.076 C85.5661,121.825 85.7791,122.574 85.9971,123.323 C86.0771,123.59 86.1591,123.858 86.2301,124.127 C86.5511,125.358 86.8721,126.596 87.1891,127.829 C87.4071,128.662 87.6131,129.499 87.8171,130.335 C87.5991,129.876 87.3801,129.415 87.1651,128.958 C86.9031,128.419 86.6371,127.885 86.3561,127.357 C86.0911,126.849 85.8441,126.33 85.5411,125.844 C85.1181,125.159 84.6941,124.474 84.2711,123.789 C84.1701,123.628 84.0601,123.479 83.9511,123.329 C83.6851,122.952 83.4151,122.581 83.1451,122.204 C82.8301,121.759 82.5201,121.314 82.1911,120.881 C81.3731,119.781 80.5551,118.687 79.7371,117.588 C78.8791,116.436 78.0251,115.273 77.1531,114.127 C76.7451,113.592 76.3451,113.042 75.9231,112.513 C75.4801,111.955 75.0511,111.377 74.5901,110.835 C74.0901,110.241 73.5841,109.647 73.0831,109.053 C72.9601,108.909 72.8271,108.772 72.6981,108.633 C72.3871,108.299 72.0771,107.96 71.7661,107.627 C71.3851,107.217 71.0101,106.802 70.6211,106.402 C69.9951,105.771 69.3741,105.138 68.7541,104.506 C66.8191,102.539 64.8381,100.626 62.8571,98.717 C61.9531,97.845 61.0271,97.011 60.1041,96.166 C59.9421,96.014 59.7671,95.874 59.6011,95.728 C59.2471,95.422 58.9001,95.122 58.5521,94.82 C58.1461,94.468 57.7441,94.105 57.3291,93.773 C56.2741,92.921 55.2321,92.053 54.1601,91.228 C53.0521,90.375 51.9411,89.532 50.8421,88.658 C49.6851,87.737 48.5231,86.816 47.3611,85.896 C46.9561,85.573 46.5511,85.251 46.1321,84.939 C45.4781,84.451 44.8211,83.962 44.1681,83.474 C43.6171,83.06 43.0351,82.698 42.4671,82.315 C42.2671,82.182 42.0721,82.038 41.8641,81.915 C41.5541,81.723 41.2441,81.535 40.9341,81.348 C39.6681,80.581 38.3911,79.855 37.0641,79.217 C37.0271,79.2 36.9871,79.204 36.9491,79.195 C36.9431,79.188 36.9381,79.181 36.9321,79.174 C36.8661,79.089 36.7991,79.004 36.7291,78.915 C36.6101,78.76 36.4681,78.653 36.2651,78.667 C36.1231,78.675 35.9941,78.745 35.8981,78.857 C35.6891,79.098 35.7301,79.434 35.9281,79.653 C36.0551,79.797 36.1801,79.944 36.3071,80.087 C36.2841,80.24 36.3041,80.403 36.4171,80.498 C36.6521,80.695 36.9011,80.874 37.1471,81.054 C37.1511,81.058 37.1551,81.063 37.1581,81.067 C37.1551,81.063 37.1521,81.059 37.1491,81.055 L37.1501,81.056 C37.1621,81.07 37.1741,81.084 37.1851,81.098 C37.1761,81.088 37.1671,81.078 37.1581,81.067 C37.4801,81.486 37.7861,81.916 38.0671,82.37 C38.3741,82.864 38.6431,83.375 38.8891,83.906 C39.4831,85.283 40.0311,86.69 40.7141,88.016 C41.3931,89.326 42.1001,90.625 42.9221,91.835 C43.6591,92.919 44.4291,93.981 45.2941,94.946 C46.1491,95.901 47.0181,96.846 47.8511,97.823 C49.5461,99.824 51.2411,101.831 52.9111,103.858 C53.1121,104.121 53.3141,104.379 53.5161,104.638 C54.3221,105.672 55.1011,106.724 55.9111,107.748 C56.7561,108.81 57.5871,109.883 58.4421,110.94 C60.2101,113.115 62.0231,115.247 63.8551,117.362 C64.3261,117.898 64.8141,118.417 65.2891,118.947 C65.6691,119.367 66.0591,119.776 66.4571,120.18 C66.9151,120.646 67.3601,121.133 67.8361,121.582 C68.4311,122.145 69.0251,122.708 69.6191,123.276 C70.5481,124.161 71.5181,125.008 72.4911,125.839 C73.5281,126.723 74.6201,127.532 75.6931,128.367 C76.6641,129.123 77.6401,129.884 78.6381,130.603 C79.2861,131.071 79.9381,131.54 80.5851,132.008 C80.7751,132.142 80.9741,132.256 81.1681,132.38 C81.5601,132.627 81.9491,132.88 82.3421,133.127 C83.4341,133.825 84.5431,134.486 85.6481,135.153 C85.8421,135.272 86.0221,135.402 86.2071,135.526 C86.5911,135.785 86.9751,136.043 87.3641,136.301 C88.1211,136.81 88.8731,137.324 89.6221,137.852 C89.8211,138.699 90.0111,139.549 90.2051,140.398 C90.6451,142.345 90.9701,144.324 91.2991,146.303 C91.5921,148.234 91.8991,150.164 92.1271,152.107 C92.3701,154.143 92.5931,156.186 92.8031,158.229 C93.0081,160.277 93.1701,162.328 93.2991,164.386 C93.4261,166.374 93.5531,168.361 93.6331,170.352 C93.6541,170.917 93.6941,171.48 93.7011,172.045 C93.7091,172.636 93.7121,173.227 93.7201,173.818 C93.7321,174.757 93.7341,175.702 93.7181,176.643 C93.7021,177.527 93.6831,178.409 93.6611,179.292 C93.6151,179.461 93.5721,179.629 93.5261,179.798 C93.4781,179.979 93.5321,180.16 93.6351,180.301 C93.5991,181.408 93.5621,182.516 93.5251,183.623 C93.4571,185.719 93.3661,187.816 93.2651,189.915 C93.2351,190.589 93.1971,191.263 93.1601,191.938 C93.0711,191.184 92.9811,190.43 92.8951,189.674 C92.7841,188.742 92.6781,187.809 92.5671,186.876 C92.5341,186.61 92.4911,186.345 92.4471,186.08 C92.3421,185.41 92.2311,184.74 92.1121,184.076 C91.8791,182.797 91.6131,181.531 91.2871,180.279 C90.2581,176.354 88.7771,172.604 86.8961,169.077 C86.5351,168.403 86.1411,167.756 85.7611,167.098 C85.4521,166.563 85.1531,166.026 84.8341,165.496 C83.4051,163.137 81.9761,160.773 80.4551,158.481 C79.7061,157.353 78.9811,156.207 78.1971,155.11 C77.4221,154.028 76.6521,152.946 75.8771,151.869 C75.4121,151.222 74.9481,150.58 74.4831,149.933 C74.0481,149.335 73.5911,148.758 73.1471,148.17 C72.3401,147.105 71.5001,146.063 70.6511,145.031 C70.2351,144.527 69.8351,143.992 69.3911,143.511 C68.9321,143.01 68.4821,142.503 67.9991,142.024 C67.0501,141.08 66.0821,140.157 65.0641,139.288 C62.9701,137.502 60.8621,135.733 58.8001,133.911 C56.7521,132.102 54.6681,130.336 52.5931,128.565 C51.6201,127.739 50.6371,126.918 49.6591,126.097 C49.1791,125.698 48.6871,125.32 48.2031,124.932 C47.5981,124.446 47.0041,123.787 46.2101,123.702 C46.1491,123.696 46.0881,123.695 46.0291,123.698 C46.0281,123.698 46.0271,123.697 46.0261,123.697 C46.0241,123.697 46.0231,123.7 46.0211,123.7 C45.7451,123.718 45.4991,123.845 45.3551,124.136 C45.3151,124.22 45.3121,124.312 45.3001,124.402 C45.2961,124.419 45.2911,124.434 45.2901,124.451 C45.2751,124.629 45.2941,124.807 45.3861,124.962 C45.4821,125.123 45.5641,125.29 45.6601,125.45 C45.7361,125.571 45.8391,125.681 45.9341,125.791 C45.9541,125.815 45.9781,125.837 46.0001,125.861 C46.0911,126.01 46.1821,126.159 46.2741,126.307 C46.5521,126.773 46.8071,127.252 47.0711,127.731 C47.5901,128.677 48.0721,129.652 48.5491,130.622 C49.1281,131.807 49.6941,132.999 50.3021,134.167 C50.9041,135.331 51.5631,136.465 52.2391,137.579 C52.9411,138.731 53.6711,139.872 54.3221,141.058 C54.6461,141.638 54.9721,142.218 55.2641,142.816 C55.5571,143.413 55.8491,144.011 56.1221,144.615 C56.7371,145.96 57.3511,147.31 57.9611,148.66 C58.5241,149.917 59.1211,151.157 59.7211,152.392 C60.2911,153.578 60.8571,154.769 61.4551,155.939 C62.0791,157.151 62.6831,158.37 63.3111,159.578 C63.6641,160.257 64.0201,160.932 64.3781,161.611 L64.3781,161.611 Z" id="Fill-3" fill="#624A7E" mask="url(#mask-2)"></path>
                    </g>
                </g>
            </g>
        </g>
    </g>
</svg>